<svg width="32" height="39" viewBox="0 0 32 39" fill="none" xmlns="http://www.w3.org/2000/svg">
<g opacity="0.3">
<path opacity="0.3" d="M22.3472 7.88C21.4725 7.87915 20.6338 7.53127 20.0152 6.91273C19.3967 6.2942 19.0488 5.45552 19.048 4.58078V0H4.30559C3.16368 0 2.06854 0.453637 1.26108 1.26109C0.453627 2.06855 0 3.16367 0 4.30558V30.2608C0.00169574 31.4016 0.456067 32.4951 1.26334 33.3012C2.07061 34.1072 3.16479 34.56 4.30559 34.56H22.0032C23.144 34.56 24.2382 34.1072 25.0455 33.3012C25.8527 32.4951 26.3071 31.4016 26.3088 30.2608V7.88H22.3472Z" fill="#FF3E4C"/>
</g>
<path d="M26.3088 7.88H22.3472C21.4724 7.87915 20.6338 7.53127 20.0152 6.91273C19.3967 6.2942 19.0488 5.45552 19.048 4.58078V0L26.3088 7.88Z" fill="#FF3E4C"/>
<path d="M20.896 24.1344H4.3776C4.21847 24.1344 4.06586 24.0712 3.95334 23.9587C3.84081 23.8461 3.7776 23.6935 3.7776 23.5344C3.77803 23.3756 3.84143 23.2233 3.9539 23.1112C4.06638 22.999 4.21875 22.936 4.3776 22.936H20.896C21.0547 22.936 21.2069 22.999 21.3191 23.1112C21.4314 23.2235 21.4944 23.3757 21.4944 23.5344C21.4946 23.6131 21.4793 23.6911 21.4493 23.7639C21.4193 23.8367 21.3753 23.9028 21.3197 23.9586C21.2641 24.0143 21.1981 24.0585 21.1254 24.0887C21.0527 24.1189 20.9747 24.1344 20.896 24.1344Z" fill="#FF3E4C"/>
<path d="M20.896 17.376H4.3776C4.21875 17.376 4.06638 17.313 3.9539 17.2008C3.84143 17.0886 3.77803 16.9365 3.7776 16.7776C3.7776 16.6185 3.84081 16.4658 3.95334 16.3533C4.06586 16.2408 4.21847 16.1776 4.3776 16.1776H20.896C20.9747 16.1776 21.0527 16.1931 21.1254 16.2233C21.1981 16.2535 21.2641 16.2977 21.3197 16.3534C21.3753 16.4092 21.4193 16.4753 21.4493 16.5481C21.4793 16.6209 21.4946 16.6989 21.4944 16.7776C21.4944 16.9363 21.4314 17.0885 21.3191 17.2007C21.2069 17.313 21.0547 17.376 20.896 17.376Z" fill="#FF3E4C"/>
<path d="M20.896 20.7552H4.3776C4.21847 20.7552 4.06586 20.692 3.95334 20.5794C3.84081 20.4669 3.7776 20.3143 3.7776 20.1552C3.77803 19.9963 3.84143 19.8441 3.9539 19.7319C4.06638 19.6198 4.21875 19.5568 4.3776 19.5568H20.896C21.0547 19.5568 21.2069 19.6198 21.3191 19.7321C21.4314 19.8443 21.4944 19.9965 21.4944 20.1552C21.4946 20.2339 21.4793 20.3119 21.4493 20.3847C21.4193 20.4575 21.3753 20.5236 21.3197 20.5794C21.2641 20.6351 21.1981 20.6793 21.1254 20.7095C21.0527 20.7397 20.9747 20.7552 20.896 20.7552Z" fill="#FF3E4C"/>
<path d="M14.3808 13.9968H4.3776C4.21875 13.9968 4.06638 13.9338 3.9539 13.8216C3.84143 13.7095 3.77803 13.5572 3.7776 13.3984C3.7776 13.2393 3.84081 13.0867 3.95334 12.9741C4.06586 12.8616 4.21847 12.7984 4.3776 12.7984H14.3808C14.5397 12.7988 14.6919 12.8622 14.804 12.9747C14.9162 13.0872 14.9792 13.2395 14.9792 13.3984C14.9788 13.557 14.9156 13.7089 14.8035 13.821C14.6913 13.9332 14.5394 13.9964 14.3808 13.9968Z" fill="#FF3E4C"/>
<path d="M14.3808 10.6176H4.3776C4.21875 10.6176 4.06638 10.5546 3.9539 10.4424C3.84143 10.3302 3.77803 10.1781 3.7776 10.0192C3.7776 9.86009 3.84081 9.70744 3.95334 9.59492C4.06586 9.4824 4.21847 9.41922 4.3776 9.41922H14.3808C14.5397 9.41964 14.6919 9.48303 14.804 9.59551C14.9162 9.70798 14.9792 9.86037 14.9792 10.0192C14.9788 10.1778 14.9156 10.3297 14.8035 10.4419C14.6913 10.554 14.5394 10.6172 14.3808 10.6176Z" fill="#FF3E4C"/>
<path d="M29.4304 27.2976H9.424C8.00485 27.2976 6.8544 28.448 6.8544 29.8672V35.832C6.8544 37.2511 8.00485 38.4016 9.424 38.4016H29.4304C30.8496 38.4016 32 37.2511 32 35.832V29.8672C32 28.448 30.8496 27.2976 29.4304 27.2976Z" fill="#FF3E4C"/>
<path d="M13.4176 34.1408V35.304H12.2144V34.1408H13.4176Z" fill="white"/>
<path d="M15.1872 33.616V35.304H14.024V30.4928H15.9088C16.48 30.4928 16.9168 30.6352 17.216 30.9184C17.3674 31.0672 17.4856 31.2463 17.5628 31.444C17.64 31.6417 17.6745 31.8536 17.664 32.0656C17.6698 32.3453 17.6008 32.6215 17.464 32.8656C17.3243 33.1042 17.1172 33.2963 16.8688 33.4176C16.5691 33.5592 16.2401 33.6278 15.9088 33.6176L15.1872 33.616ZM16.48 32.0656C16.48 31.6389 16.2464 31.4256 15.7792 31.4256H15.1872V32.6784H15.7792C16.2464 32.6827 16.48 32.4784 16.48 32.0656Z" fill="white"/>
<path d="M22.2608 34.144C22.0605 34.5078 21.7578 34.8049 21.3904 34.9984C20.9769 35.2101 20.5172 35.3151 20.0528 35.304H18.2368V30.4928H20.0528C20.5175 30.4811 20.9779 30.5838 21.3936 30.792C21.76 30.9814 22.0619 31.2754 22.2608 31.6368C22.469 32.0204 22.5737 32.4516 22.5648 32.888C22.5735 33.3259 22.4687 33.7585 22.2608 34.144ZM21.0096 33.9024C21.1397 33.7689 21.2404 33.6097 21.3054 33.435C21.3705 33.2604 21.3983 33.0741 21.3872 32.888C21.3984 32.7022 21.3706 32.5161 21.3055 32.3416C21.2405 32.1672 21.1397 32.0083 21.0096 31.8752C20.7186 31.6198 20.3384 31.4899 19.952 31.5136H19.4V34.2624H19.952C20.3381 34.2858 20.718 34.1565 21.0096 33.9024Z" fill="white"/>
<path d="M26.3616 30.4928V31.4192H24.3888V32.4736H25.912V33.3584H24.3888V35.304H23.224V30.4928H26.3616Z" fill="white"/>
<path d="M20.6032 9.4192H17.7744C17.2813 9.4192 16.8816 9.81892 16.8816 10.312V13.1408C16.8816 13.6339 17.2813 14.0336 17.7744 14.0336H20.6032C21.0963 14.0336 21.496 13.6339 21.496 13.1408V10.312C21.496 9.81892 21.0963 9.4192 20.6032 9.4192Z" fill="#FF3E4C"/>
</svg>
