<svg width="28" height="28" viewBox="0 0 28 28" fill="none" xmlns="http://www.w3.org/2000/svg">
<path d="M23.333 14.32C23.333 14.763 23.0038 15.1291 22.5767 15.187L22.458 15.195L4.95801 15.195C4.47476 15.195 4.08301 14.8033 4.08301 14.32C4.08301 13.8771 4.41219 13.511 4.83928 13.453L4.95801 13.445L22.458 13.445C22.9413 13.445 23.333 13.8368 23.333 14.32Z" fill="#212121"/>
<path d="M12.633 20.7284C12.9755 21.0694 12.9766 21.6234 12.6357 21.9659C12.3257 22.2772 11.8397 22.3065 11.4966 22.053L11.3982 21.9685L4.33991 14.9405C4.02766 14.6296 3.99926 14.1418 4.25471 13.7988L4.33986 13.7005L11.3982 6.67132C11.7406 6.33032 12.2946 6.33147 12.6356 6.67388C12.9456 6.98517 12.9729 7.47134 12.718 7.81336L12.6331 7.91132L6.19769 14.3208L12.633 20.7284Z" fill="#212121"/>
</svg>
