<svg width="28" height="28" viewBox="0 0 28 28" fill="none" xmlns="http://www.w3.org/2000/svg">
<path fill-rule="evenodd" clip-rule="evenodd" d="M10.4133 19.1217H16.6972C17.1708 19.1217 17.5635 18.725 17.5635 18.2467C17.5635 17.7683 17.1708 17.3833 16.6972 17.3833H10.4133C9.93975 17.3833 9.54701 17.7683 9.54701 18.2467C9.54701 18.725 9.93975 19.1217 10.4133 19.1217ZM14.3176 11.55H10.4133C9.93975 11.55 9.54701 11.9467 9.54701 12.425C9.54701 12.9033 9.93975 13.2883 10.4133 13.2883H14.3176C14.7912 13.2883 15.184 12.9033 15.184 12.425C15.184 11.9467 14.7912 11.55 14.3176 11.55ZM22.5611 10.5299C22.8326 10.5267 23.1282 10.5233 23.3968 10.5233C23.6856 10.5233 23.9166 10.7567 23.9166 11.0483V20.4283C23.9166 23.3217 21.5949 25.6667 18.7302 25.6667H9.53546C6.53216 25.6667 4.08331 23.205 4.08331 20.1717V7.595C4.08331 4.70167 6.41665 2.33333 9.29288 2.33333H15.4612C15.7615 2.33333 15.9926 2.57833 15.9926 2.87V6.62667C15.9926 8.76167 17.7368 10.5117 19.8506 10.5233C20.3444 10.5233 20.7797 10.527 21.1606 10.5303C21.457 10.5328 21.7204 10.535 21.953 10.535C22.1174 10.535 22.3305 10.5325 22.5611 10.5299ZM22.8796 8.827C21.9301 8.8305 20.8108 8.827 20.0057 8.81883C18.7281 8.81883 17.6758 7.756 17.6758 6.46567V3.39033C17.6758 2.8875 18.2799 2.63783 18.6253 3.00067C19.2503 3.65702 20.1091 4.55919 20.9641 5.45729C21.8172 6.3535 22.6665 7.24567 23.2758 7.8855C23.6131 8.239 23.3659 8.82583 22.8796 8.827Z" fill="white"/>
</svg>
