<svg width="32" height="39" viewBox="0 0 32 39" fill="none" xmlns="http://www.w3.org/2000/svg">
<g opacity="0.3">
<path opacity="0.3" d="M22.3461 7.87961C21.4714 7.87876 20.6328 7.53089 20.0143 6.91239C19.3957 6.29388 19.0479 5.45525 19.0471 4.58055V2.97351e-07H4.30699C3.74147 -0.000209857 3.18143 0.110978 2.65889 0.32725C2.13635 0.543521 1.66156 0.860632 1.2616 1.26044C0.861636 1.66026 0.54436 2.13495 0.327894 2.65741C0.111428 3.17986 -3.90477e-08 3.73985 0 4.30537V30.2593C-3.90476e-08 30.8248 0.111428 31.3848 0.327894 31.9073C0.54436 32.4297 0.861636 32.9044 1.2616 33.3042C1.66156 33.704 2.13635 34.0211 2.65889 34.2374C3.18143 34.4537 3.74147 34.5649 4.30699 34.5647H22.0021C22.5675 34.5647 23.1273 34.4533 23.6497 34.237C24.172 34.0206 24.6467 33.7034 25.0465 33.3036C25.4463 32.9039 25.7634 32.4292 25.9798 31.9069C26.1961 31.3845 26.3075 30.8247 26.3075 30.2593V7.87961H22.3461Z" fill="#0072FF"/>
</g>
<path d="M26.3075 7.87961H22.3461C21.4714 7.87876 20.6328 7.53089 20.0143 6.91239C19.3958 6.29388 19.0479 5.45525 19.0471 4.58055V0L26.3075 7.87961Z" fill="#0072FF"/>
<path d="M20.895 13.3961H4.37736C4.21866 13.3961 4.06647 13.3331 3.95426 13.2209C3.84204 13.1087 3.77899 12.9565 3.77899 12.7978C3.77878 12.7191 3.79411 12.6411 3.82409 12.5683C3.85407 12.4955 3.89811 12.4293 3.95369 12.3736C4.00928 12.3179 4.07532 12.2737 4.14802 12.2435C4.22072 12.2133 4.29865 12.1978 4.37736 12.1978H20.895C21.0541 12.1978 21.2067 12.261 21.3192 12.3735C21.4317 12.486 21.4949 12.6386 21.4949 12.7978C21.4945 12.9566 21.4311 13.1088 21.3186 13.221C21.2062 13.3332 21.0538 13.3961 20.895 13.3961Z" fill="#0072FF"/>
<path d="M20.895 16.9752H4.37736C4.21866 16.9752 4.06647 16.9121 3.95426 16.7999C3.84204 16.6877 3.77899 16.5355 3.77899 16.3768C3.77878 16.2981 3.79411 16.2201 3.82409 16.1473C3.85407 16.0745 3.89811 16.0084 3.95369 15.9527C4.00928 15.8969 4.07532 15.8527 4.14802 15.8225C4.22072 15.7924 4.29865 15.7768 4.37736 15.7768H20.895C21.0541 15.7768 21.2067 15.84 21.3192 15.9525C21.4317 16.0651 21.4949 16.2177 21.4949 16.3768C21.4945 16.5357 21.4311 16.6878 21.3186 16.8C21.2062 16.9122 21.0538 16.9752 20.895 16.9752Z" fill="#0072FF"/>
<path d="M20.895 20.5542H4.37736C4.29865 20.5542 4.22072 20.5386 4.14802 20.5085C4.07532 20.4783 4.00928 20.4341 3.95369 20.3784C3.89811 20.3226 3.85407 20.2565 3.82409 20.1837C3.79411 20.1109 3.77878 20.0329 3.77899 19.9542C3.77899 19.7955 3.84204 19.6433 3.95426 19.5311C4.06647 19.4189 4.21866 19.3558 4.37736 19.3558H20.895C21.0538 19.3558 21.2062 19.4188 21.3186 19.531C21.4311 19.6432 21.4945 19.7954 21.4949 19.9542C21.4949 20.1133 21.4317 20.2659 21.3192 20.3784C21.2067 20.491 21.0541 20.5542 20.895 20.5542Z" fill="#0072FF"/>
<path d="M14.3801 24.1332H4.37736C4.29865 24.1332 4.22072 24.1177 4.14802 24.0875C4.07532 24.0573 4.00928 24.0131 3.95369 23.9574C3.89811 23.9016 3.85407 23.8355 3.82409 23.7627C3.79411 23.6899 3.77878 23.612 3.77899 23.5332C3.77899 23.3745 3.84204 23.2223 3.95426 23.1101C4.06647 22.9979 4.21866 22.9349 4.37736 22.9349H14.3801C14.5388 22.9349 14.691 22.9979 14.8032 23.1101C14.9154 23.2223 14.9784 23.3745 14.9784 23.5332C14.9786 23.612 14.9633 23.6899 14.9334 23.7627C14.9034 23.8355 14.8593 23.9016 14.8038 23.9574C14.7482 24.0131 14.6821 24.0573 14.6094 24.0875C14.5367 24.1177 14.4588 24.1332 14.3801 24.1332Z" fill="#0072FF"/>
<path d="M29.4305 27.2962H9.42511C8.00603 27.2962 6.85565 28.4466 6.85565 29.8657V35.8302C6.85565 37.2493 8.00603 38.3997 9.42511 38.3997H29.4305C30.8496 38.3997 32 37.2493 32 35.8302V29.8657C32 28.4466 30.8496 27.2962 29.4305 27.2962Z" fill="#0072FF"/>
<path d="M12.1946 34.1391V35.3022H10.9898V34.1391H12.1946Z" fill="white"/>
<path d="M16.8248 34.1423C16.6245 34.5061 16.3219 34.8031 15.9544 34.9967C15.5409 35.2081 15.0812 35.3131 14.6169 35.3022H12.7994V30.4913H14.6169C15.0815 30.4798 15.5419 30.5825 15.9576 30.7905C16.3236 30.9805 16.6253 31.2744 16.8248 31.6352C17.0316 32.0193 17.1358 32.4502 17.1272 32.8864C17.1354 33.324 17.0313 33.7564 16.8248 34.1423ZM15.5737 33.9007C15.7037 33.7672 15.8045 33.608 15.8695 33.4334C15.9345 33.2587 15.9623 33.0724 15.9512 32.8864C15.9624 32.7006 15.9346 32.5145 15.8696 32.34C15.8045 32.1656 15.7037 32.0067 15.5737 31.8736C15.2822 31.618 14.9014 31.4881 14.5145 31.512H13.9657V34.2607H14.5161C14.9022 34.284 15.282 34.1547 15.5737 33.9007Z" fill="white"/>
<path d="M21.3094 30.7329C21.6755 30.9408 21.978 31.2444 22.1846 31.6112C22.401 31.9986 22.5114 32.4363 22.5045 32.88C22.5119 33.3247 22.4015 33.7635 22.1846 34.1519C21.9773 34.5201 21.6737 34.8249 21.3062 35.0334C20.9322 35.247 20.5081 35.3575 20.0775 35.3534C19.6468 35.3572 19.2228 35.2468 18.8487 35.0334C18.4814 34.8253 18.1781 34.5204 17.972 34.1519C17.7543 33.7638 17.6439 33.3248 17.652 32.88C17.6437 32.4361 17.7542 31.9981 17.972 31.6112C18.1792 31.2444 18.4822 30.9407 18.8487 30.7329C19.2228 30.5195 19.6468 30.4091 20.0775 30.4129C20.5092 30.4088 20.9342 30.5192 21.3094 30.7329ZM19.1655 31.8688C18.9295 32.1511 18.8094 32.5125 18.8295 32.88C18.8094 33.2459 18.9295 33.6058 19.1655 33.8863C19.2805 34.0113 19.4214 34.1095 19.5784 34.1742C19.7354 34.2389 19.9046 34.2684 20.0743 34.2607C20.2434 34.2679 20.412 34.2382 20.5684 34.1735C20.7248 34.1089 20.8652 34.0108 20.9798 33.8863C21.217 33.6063 21.3383 33.2464 21.319 32.88C21.3382 32.5141 21.2182 32.1545 20.983 31.8736C20.8681 31.7486 20.7272 31.6502 20.5702 31.5856C20.4132 31.5209 20.2439 31.4914 20.0743 31.4992C19.9051 31.4914 19.7362 31.5205 19.5793 31.5843C19.4224 31.6481 19.2812 31.7451 19.1655 31.8688Z" fill="white"/>
<path d="M26.8754 30.9265C27.2812 31.2566 27.5572 31.7196 27.6546 32.2336H26.4226C26.3395 32.0206 26.1939 31.8376 26.005 31.7088C25.8059 31.5792 25.5722 31.5128 25.3347 31.5184C25.1778 31.5134 25.0219 31.5445 24.879 31.6095C24.7361 31.6744 24.6101 31.7714 24.5107 31.8928C24.2879 32.1778 24.1744 32.533 24.1907 32.8944C24.1745 33.2542 24.288 33.608 24.5107 33.8911C24.6109 34.0113 24.7372 34.1071 24.88 34.1711C25.0228 34.2352 25.1783 34.2658 25.3347 34.2607C25.5723 34.267 25.8062 34.2006 26.005 34.0703C26.1929 33.9438 26.3384 33.7637 26.4226 33.5535H27.6546C27.5556 34.066 27.2798 34.5275 26.8754 34.8575C26.4402 35.1897 25.9026 35.3595 25.3555 35.3374C24.9244 35.3465 24.4988 35.2393 24.1235 35.027C23.7723 34.8229 23.4873 34.5218 23.3028 34.1599C23.1045 33.7629 23.0056 33.3236 23.0148 32.88C23.0058 32.4363 23.1046 31.9971 23.3028 31.6C23.4873 31.2381 23.7723 30.937 24.1235 30.7329C24.4988 30.5206 24.9244 30.4134 25.3555 30.4225C25.9054 30.4079 26.4431 30.5862 26.8754 30.9265Z" fill="white"/>
</svg>
