<svg width="32" height="39" viewBox="0 0 32 39" fill="none" xmlns="http://www.w3.org/2000/svg">
<g opacity="0.3">
<path opacity="0.3" d="M22.3472 7.88C21.4725 7.87915 20.6338 7.53127 20.0152 6.91273C19.3967 6.2942 19.0488 5.45552 19.048 4.58078V0H4.30559C3.16368 0 2.06854 0.453637 1.26108 1.26109C0.453627 2.06855 0 3.16367 0 4.30558V30.2608C0.00169574 31.4016 0.456067 32.4951 1.26334 33.3012C2.07061 34.1072 3.16479 34.56 4.30559 34.56H22.0032C23.144 34.56 24.2382 34.1072 25.0455 33.3012C25.8527 32.4951 26.3071 31.4016 26.3088 30.2608V7.88H22.3472Z" fill="#FF3E4C"/>
</g>
<path d="M26.3087 7.88H22.3471C21.4723 7.87915 20.6336 7.53127 20.0151 6.91273C19.3966 6.2942 19.0487 5.45552 19.0479 4.58078V0L26.3087 7.88Z" fill="#FF3E4C"/>
<path d="M20.8962 24.1344H4.37783C4.2187 24.1344 4.06609 24.0712 3.95356 23.9587C3.84104 23.8461 3.77783 23.6935 3.77783 23.5344C3.77826 23.3756 3.84165 23.2233 3.95413 23.1112C4.06661 22.999 4.21898 22.936 4.37783 22.936H20.8962C21.0549 22.936 21.2071 22.999 21.3194 23.1112C21.4316 23.2235 21.4946 23.3757 21.4946 23.5344C21.4948 23.6131 21.4795 23.6911 21.4495 23.7639C21.4196 23.8367 21.3755 23.9028 21.3199 23.9586C21.2643 24.0143 21.1983 24.0585 21.1256 24.0887C21.0529 24.1189 20.9749 24.1344 20.8962 24.1344Z" fill="#FF3E4C"/>
<path d="M20.8962 17.376H4.37783C4.21898 17.376 4.06661 17.313 3.95413 17.2008C3.84165 17.0886 3.77826 16.9365 3.77783 16.7776C3.77783 16.6185 3.84104 16.4658 3.95356 16.3533C4.06609 16.2408 4.2187 16.1776 4.37783 16.1776H20.8962C20.9749 16.1776 21.0529 16.1931 21.1256 16.2233C21.1983 16.2535 21.2643 16.2977 21.3199 16.3534C21.3755 16.4092 21.4196 16.4753 21.4495 16.5481C21.4795 16.6209 21.4948 16.6989 21.4946 16.7776C21.4946 16.9363 21.4316 17.0885 21.3194 17.2007C21.2071 17.313 21.0549 17.376 20.8962 17.376Z" fill="#FF3E4C"/>
<path d="M20.8962 20.7552H4.37783C4.2187 20.7552 4.06609 20.692 3.95356 20.5794C3.84104 20.4669 3.77783 20.3143 3.77783 20.1552C3.77826 19.9963 3.84165 19.8441 3.95413 19.7319C4.06661 19.6198 4.21898 19.5568 4.37783 19.5568H20.8962C21.0549 19.5568 21.2071 19.6198 21.3194 19.7321C21.4316 19.8443 21.4946 19.9965 21.4946 20.1552C21.4948 20.2339 21.4795 20.3119 21.4495 20.3847C21.4196 20.4575 21.3755 20.5236 21.3199 20.5794C21.2643 20.6351 21.1983 20.6793 21.1256 20.7095C21.0529 20.7397 20.9749 20.7552 20.8962 20.7552Z" fill="#FF3E4C"/>
<path d="M14.381 13.9968H4.37783C4.21898 13.9968 4.06661 13.9338 3.95413 13.8216C3.84165 13.7095 3.77826 13.5572 3.77783 13.3984C3.77783 13.2393 3.84104 13.0867 3.95356 12.9741C4.06609 12.8616 4.2187 12.7984 4.37783 12.7984H14.381C14.5399 12.7988 14.6921 12.8622 14.8043 12.9747C14.9164 13.0872 14.9794 13.2395 14.9794 13.3984C14.979 13.557 14.9158 13.7089 14.8037 13.8211C14.6916 13.9332 14.5396 13.9964 14.381 13.9968Z" fill="#FF3E4C"/>
<path d="M14.381 10.6176H4.37783C4.21898 10.6176 4.06661 10.5546 3.95413 10.4424C3.84165 10.3302 3.77826 10.1781 3.77783 10.0192C3.77783 9.86009 3.84104 9.70744 3.95356 9.59492C4.06609 9.4824 4.2187 9.41922 4.37783 9.41922H14.381C14.5399 9.41964 14.6921 9.48303 14.8043 9.59551C14.9164 9.70798 14.9794 9.86036 14.9794 10.0192C14.979 10.1778 14.9158 10.3297 14.8037 10.4419C14.6916 10.554 14.5396 10.6172 14.381 10.6176Z" fill="#FF3E4C"/>
<path d="M29.4305 27.2976H9.42409C8.00494 27.2976 6.85449 28.448 6.85449 29.8672V35.832C6.85449 37.2511 8.00494 38.4016 9.42409 38.4016H29.4305C30.8496 38.4016 32.0001 37.2511 32.0001 35.832V29.8672C32.0001 28.448 30.8496 27.2976 29.4305 27.2976Z" fill="#FF3E4C"/>
<path d="M13.4176 34.1408V35.304H12.2144V34.1408H13.4176Z" fill="white"/>
<path d="M15.1871 33.616V35.304H14.0239V30.4928H15.9087C16.4799 30.4928 16.9167 30.6352 17.2159 30.9184C17.3673 31.0672 17.4855 31.2463 17.5627 31.444C17.6399 31.6417 17.6744 31.8536 17.6639 32.0656C17.6698 32.3453 17.6007 32.6215 17.4639 32.8656C17.3242 33.1042 17.1172 33.2963 16.8687 33.4176C16.569 33.5592 16.24 33.6278 15.9087 33.6176L15.1871 33.616ZM16.4799 32.0656C16.4799 31.6389 16.2463 31.4256 15.7791 31.4256H15.1871V32.6784H15.7791C16.2463 32.6827 16.4799 32.4784 16.4799 32.0656Z" fill="white"/>
<path d="M22.2608 34.144C22.0605 34.5078 21.7579 34.8049 21.3904 34.9984C20.977 35.2101 20.5172 35.3151 20.0528 35.304H18.2368V30.4928H20.0528C20.5175 30.4811 20.978 30.5838 21.3936 30.792C21.7601 30.9814 22.0619 31.2754 22.2608 31.6368C22.469 32.0204 22.5738 32.4516 22.5648 32.888C22.5735 33.3259 22.4688 33.7585 22.2608 34.144ZM21.0096 33.9024C21.1397 33.7689 21.2404 33.6097 21.3055 33.435C21.3705 33.2604 21.3983 33.0741 21.3872 32.888C21.3984 32.7022 21.3706 32.5161 21.3056 32.3416C21.2405 32.1672 21.1397 32.0083 21.0096 31.8752C20.7186 31.6198 20.3385 31.4899 19.952 31.5136H19.4V34.2624H19.952C20.3381 34.2858 20.718 34.1565 21.0096 33.9024Z" fill="white"/>
<path d="M26.3617 30.4928V31.4192H24.3889V32.4736H25.9121V33.3584H24.3889V35.304H23.2241V30.4928H26.3617Z" fill="white"/>
<path d="M20.6034 9.4192H17.7746C17.2815 9.4192 16.8818 9.81892 16.8818 10.312V13.1408C16.8818 13.6339 17.2815 14.0336 17.7746 14.0336H20.6034C21.0965 14.0336 21.4962 13.6339 21.4962 13.1408V10.312C21.4962 9.81892 21.0965 9.4192 20.6034 9.4192Z" fill="#FF3E4C"/>
</svg>
