<svg width="20" height="20" viewBox="0 0 20 20" fill="none" xmlns="http://www.w3.org/2000/svg">
<path fill-rule="evenodd" clip-rule="evenodd" d="M14.6022 6.16334V7.44112C16.0375 7.88913 17.0833 9.18844 17.0833 10.7403V14.8544C17.0833 16.7756 15.4905 18.3333 13.5268 18.3333H6.47396C4.50942 18.3333 2.91663 16.7756 2.91663 14.8544V10.7403C2.91663 9.18844 3.96325 7.88913 5.3977 7.44112V6.16334C5.40617 3.67899 7.46385 1.66666 9.98726 1.66666C12.5445 1.66666 14.6022 3.67899 14.6022 6.16334ZM10.0042 3.11587C11.7232 3.11587 13.1204 4.48226 13.1204 6.16334V7.26142H6.87957V6.14677C6.88803 4.47398 8.28522 3.11587 10.0042 3.11587ZM10.7409 13.7124C10.7409 14.1182 10.4106 14.4412 9.99573 14.4412C9.58927 14.4412 9.25902 14.1182 9.25902 13.7124V11.874C9.25902 11.4765 9.58927 11.1536 9.99573 11.1536C10.4106 11.1536 10.7409 11.4765 10.7409 11.874V13.7124Z" fill="#B8C8FF"/>
</svg>
