<svg width="32" height="39" viewBox="0 0 32 39" fill="none" xmlns="http://www.w3.org/2000/svg">
<g opacity="0.3">
<path opacity="0.3" d="M22.3472 7.88C21.4725 7.87915 20.6338 7.53127 20.0153 6.91273C19.3967 6.2942 19.0488 5.45552 19.048 4.58078V0H4.3056C3.16368 0 2.06854 0.453637 1.26108 1.26109C0.453625 2.06855 0 3.16367 0 4.30559V30.2608C0.00169574 31.4016 0.456069 32.4951 1.26334 33.3012C2.07062 34.1072 3.16479 34.56 4.3056 34.56H22.0016C22.5672 34.5602 23.1272 34.449 23.6498 34.2327C24.1723 34.0165 24.6472 33.6993 25.0472 33.2995C25.4471 32.8997 25.7644 32.4249 25.9809 31.9025C26.1974 31.38 26.3088 30.82 26.3088 30.2544V7.87359L22.3472 7.88Z" fill="#00C650"/>
</g>
<path d="M26.3088 7.88H22.3472C21.4725 7.87915 20.6338 7.53127 20.0152 6.91273C19.3967 6.2942 19.0488 5.45552 19.048 4.58078V0L26.3088 7.88Z" fill="#00C650"/>
<path d="M29.4304 27.2976H9.42399C8.00484 27.2976 6.85439 28.448 6.85439 29.8672V35.832C6.85439 37.2512 8.00484 38.4016 9.42399 38.4016H29.4304C30.8495 38.4016 32 37.2512 32 35.832V29.8672C32 28.448 30.8495 27.2976 29.4304 27.2976Z" fill="#00C650"/>
<path d="M12.8784 34.0992V35.2592H11.68V34.0992H12.8784Z" fill="white"/>
<path d="M17.184 30.9024C17.5889 31.2301 17.864 31.6912 17.96 32.2032H16.7344C16.6526 31.9908 16.5081 31.8082 16.32 31.68C16.1221 31.5502 15.8894 31.4838 15.6528 31.4896C15.4968 31.4849 15.3418 31.516 15.1998 31.5807C15.0578 31.6453 14.9325 31.7417 14.8336 31.8624C14.6137 32.1467 14.503 32.5003 14.5216 32.8592C14.5029 33.2167 14.6137 33.5688 14.8336 33.8512C14.9329 33.9713 15.0583 34.067 15.2003 34.131C15.3423 34.1951 15.4971 34.2258 15.6528 34.2208C15.8894 34.2266 16.1221 34.1602 16.32 34.0304C16.508 33.9048 16.6536 33.7252 16.7376 33.5152H17.9632C17.8652 34.0255 17.5904 34.485 17.1872 34.8128C16.7546 35.1454 16.2188 35.3153 15.6736 35.2928C15.2442 35.3022 14.8202 35.1955 14.4464 34.984C14.0962 34.7815 13.8126 34.4812 13.6304 34.12C13.4332 33.7277 13.3344 33.2934 13.3424 32.8544C13.3342 32.4149 13.433 31.98 13.6304 31.5872C13.8126 31.226 14.0962 30.9257 14.4464 30.7232C14.8202 30.5117 15.2442 30.405 15.6736 30.4144C16.2186 30.3957 16.753 30.5683 17.184 30.9024Z" fill="white"/>
<path d="M21.8608 34.608C21.7229 34.8281 21.5254 35.0045 21.2912 35.1168C21.0062 35.2502 20.6938 35.3149 20.3792 35.3056C19.9054 35.3248 19.4386 35.187 19.0512 34.9136C18.8801 34.785 18.7401 34.6196 18.6415 34.4296C18.5429 34.2396 18.4883 34.0299 18.4816 33.816H19.7152C19.7237 33.9772 19.7929 34.1292 19.9088 34.2416C20.0234 34.3489 20.1759 34.4064 20.3328 34.4016C20.4614 34.4081 20.5876 34.3646 20.6848 34.28C20.7269 34.2383 20.7601 34.1884 20.7821 34.1333C20.8041 34.0783 20.8146 34.0193 20.8128 33.96C20.8143 33.904 20.8046 33.8482 20.7843 33.796C20.7639 33.7438 20.7334 33.6962 20.6944 33.656C20.6103 33.5706 20.5103 33.5027 20.4 33.456C20.2816 33.4032 20.12 33.3408 19.912 33.2688C19.6581 33.1852 19.41 33.0848 19.1696 32.968C18.972 32.8658 18.8023 32.717 18.6752 32.5344C18.529 32.3129 18.4567 32.0507 18.4688 31.7856C18.4623 31.5227 18.5378 31.2644 18.6848 31.0464C18.836 30.8334 19.0439 30.6672 19.2848 30.5664C19.5636 30.4536 19.8625 30.3991 20.1632 30.4064C20.6177 30.3823 21.0666 30.5163 21.4336 30.7856C21.5902 30.9126 21.7185 31.0711 21.81 31.2508C21.9015 31.4305 21.9542 31.6274 21.9648 31.8288H20.712C20.6966 31.6881 20.6359 31.5561 20.5392 31.4528C20.4892 31.4054 20.4301 31.3686 20.3654 31.3447C20.3008 31.3208 20.232 31.3102 20.1632 31.3136C20.0436 31.3075 19.926 31.3463 19.8336 31.4224C19.7903 31.4631 19.7567 31.513 19.7351 31.5683C19.7135 31.6237 19.7045 31.6831 19.7088 31.7424C19.7074 31.7954 19.7166 31.8482 19.7359 31.8976C19.7551 31.9471 19.784 31.9922 19.8208 32.0304C19.9001 32.1139 19.996 32.1798 20.1024 32.224C20.2144 32.2736 20.3776 32.3376 20.5824 32.4144C20.841 32.4976 21.0929 32.6003 21.336 32.7216C21.5353 32.8288 21.7068 32.9811 21.8368 33.1664C21.9852 33.3906 22.0585 33.6562 22.0464 33.9248C22.0476 34.1651 21.9834 34.4013 21.8608 34.608Z" fill="white"/>
<path d="M23.5904 30.4688L24.7632 34.0736L25.936 30.4688H27.176L25.5088 35.2592H24.0112L22.3504 30.4688H23.5904Z" fill="white"/>
<path d="M19.0224 24.128H7.2864C6.2704 24.128 5.44481 23.1168 5.44481 21.872V13.3616C5.44481 12.1184 6.2704 11.1072 7.2864 11.1072H19.0224C20.0384 11.1072 20.864 12.1184 20.864 13.3616V21.872C20.864 23.1168 20.0384 24.128 19.0224 24.128ZM7.2864 12.2592C6.7904 12.2592 6.38561 12.7536 6.38561 13.3616V21.872C6.38561 22.48 6.7904 22.9744 7.2864 22.9744H19.0224C19.5184 22.9744 19.9216 22.48 19.9216 21.872V13.3616C19.9216 12.7536 19.5184 12.2592 19.0224 12.2592H7.2864Z" fill="#00C650"/>
<path d="M20.3936 19.0032H5.9152V20.1568H20.3936V19.0032Z" fill="#00C650"/>
<path d="M20.3936 15.048H5.9152V16.2016H20.3936V15.048Z" fill="#00C650"/>
<path d="M16.6864 11.6832H15.5328V23.5504H16.6864V11.6832Z" fill="#00C650"/>
<path d="M10.776 11.6832H9.6224V23.5504H10.776V11.6832Z" fill="#00C650"/>
</svg>
