<svg width="28" height="28" viewBox="0 0 28 28" fill="none" xmlns="http://www.w3.org/2000/svg">
<path fill-rule="evenodd" clip-rule="evenodd" d="M14.2877 25.6667C12.7069 25.6667 11.1657 25.6492 9.6409 25.6177C7.69024 25.5792 6.34041 24.3145 6.11991 22.3172C5.75241 19.0038 5.12357 11.1942 5.11774 11.116C5.07807 10.6342 5.43741 10.2118 5.91924 10.1733C6.39407 10.1605 6.82341 10.4942 6.86191 10.9748C6.86774 11.0542 7.49541 18.837 7.85941 22.1247C7.98424 23.2598 8.59674 23.8455 9.67707 23.8677C12.5937 23.9295 15.5699 23.933 18.7782 23.8747C19.9262 23.8525 20.5469 23.2785 20.6752 22.1165C21.0369 18.8568 21.6669 11.0542 21.6739 10.9748C21.7124 10.4942 22.1382 10.1582 22.6154 10.1733C23.0972 10.213 23.4566 10.6342 23.4181 11.116C23.4111 11.1953 22.7787 19.0248 22.4147 22.309C22.1884 24.3472 20.8421 25.5873 18.8097 25.6247C17.2546 25.6515 15.7542 25.6667 14.2877 25.6667Z" fill="#212121"/>
<path fill-rule="evenodd" clip-rule="evenodd" d="M24.1593 8.15417H4.375C3.892 8.15417 3.5 7.76217 3.5 7.27917C3.5 6.79617 3.892 6.40417 4.375 6.40417H24.1593C24.6423 6.40417 25.0343 6.79617 25.0343 7.27917C25.0343 7.76217 24.6423 8.15417 24.1593 8.15417Z" fill="#212121"/>
<path fill-rule="evenodd" clip-rule="evenodd" d="M20.3472 8.15418C19.0195 8.15418 17.8668 7.20801 17.6055 5.90601L17.322 4.48735C17.2625 4.27151 17.0163 4.08368 16.7363 4.08368H11.7978C11.5178 4.08368 11.2717 4.27151 11.2005 4.54101L10.9287 5.90601C10.6685 7.20801 9.51468 8.15418 8.18701 8.15418C7.70401 8.15418 7.31201 7.76218 7.31201 7.27918C7.31201 6.79618 7.70401 6.40418 8.18701 6.40418C8.68401 6.40418 9.11568 6.04951 9.21368 5.56185L9.49718 4.14318C9.78535 3.05585 10.7268 2.33368 11.7978 2.33368H16.7363C17.8073 2.33368 18.7488 3.05585 19.0253 4.09068L19.3217 5.56185C19.4185 6.04951 19.8502 6.40418 20.3472 6.40418C20.8302 6.40418 21.2222 6.79618 21.2222 7.27918C21.2222 7.76218 20.8302 8.15418 20.3472 8.15418Z" fill="#212121"/>
</svg>
