<svg width="32" height="39" viewBox="0 0 32 39" fill="none" xmlns="http://www.w3.org/2000/svg">
<g opacity="0.3">
<path opacity="0.3" d="M22.3472 7.88C21.4724 7.87915 20.6338 7.53127 20.0152 6.91273C19.3967 6.2942 19.0489 5.45552 19.048 4.58078V0H4.30559C3.16367 0 2.06855 0.453637 1.26109 1.26109C0.453637 2.06855 0 3.16367 0 4.30559V30.2608C0 31.4027 0.453637 32.4979 1.26109 33.3053C2.06855 34.1128 3.16367 34.5664 4.30559 34.5664H22.0016C22.5672 34.5666 23.1272 34.4554 23.6498 34.2391C24.1723 34.0228 24.6472 33.7057 25.0471 33.3059C25.4471 32.9061 25.7644 32.4314 25.9809 31.9089C26.1974 31.3864 26.3088 30.8263 26.3088 30.2608V7.88H22.3472Z" fill="#FF3E4C"/>
</g>
<path d="M26.3086 7.88H22.347C21.4723 7.87915 20.6336 7.53127 20.0151 6.91273C19.3965 6.2942 19.0487 5.45552 19.0479 4.58078V0L26.3086 7.88Z" fill="#FF3E4C"/>
<path d="M29.4305 27.2976H9.42406C8.00491 27.2976 6.85449 28.448 6.85449 29.8672V35.832C6.85449 37.2511 8.00491 38.4016 9.42406 38.4016H29.4305C30.8496 38.4016 32.0001 37.2511 32.0001 35.832V29.8672C32.0001 28.448 30.8496 27.2976 29.4305 27.2976Z" fill="#FF3E4C"/>
<path d="M13.8879 34.1408V35.304H12.6831V34.1408H13.8879Z" fill="white"/>
<path d="M15.6578 33.616V35.304H14.4946V30.4928H16.3794C16.9512 30.4928 17.3864 30.6347 17.685 30.9184C17.8366 31.0671 17.9551 31.2462 18.0326 31.4439C18.11 31.6416 18.1448 31.8535 18.1346 32.0656C18.1397 32.3452 18.0707 32.6212 17.9346 32.8656C17.7947 33.1046 17.587 33.2968 17.3378 33.4176C17.0383 33.5598 16.7092 33.6284 16.3778 33.6176L15.6578 33.616ZM16.9506 32.0656C16.9506 31.6389 16.717 31.4256 16.2498 31.4256H15.6578V32.6784H16.2498C16.717 32.6827 16.9506 32.4784 16.9506 32.0656Z" fill="white"/>
<path d="M19.8704 33.616V35.304H18.7056V30.4928H20.5904C21.1632 30.4928 21.5989 30.6347 21.8976 30.9184C22.0492 31.0671 22.1676 31.2462 22.2451 31.4439C22.3226 31.6416 22.3574 31.8535 22.3472 32.0656C22.3524 32.3455 22.2828 32.6216 22.1456 32.8656C22.0067 33.1049 21.7994 33.2972 21.5504 33.4176C21.2509 33.5598 20.9217 33.6284 20.5904 33.6176L19.8704 33.616ZM21.1632 32.0656C21.1632 31.6389 20.9296 31.4256 20.4624 31.4256H19.8704V32.6784H20.4624C20.9296 32.6827 21.1632 32.4784 21.1632 32.0656Z" fill="white"/>
<path d="M26.3762 30.4928V31.4192H25.069V35.304H23.8994V31.4192H22.605V30.4928H26.3762Z" fill="white"/>
<path d="M11.9503 13.3968H4.95986C4.80101 13.3968 4.64863 13.3338 4.53615 13.2216C4.42368 13.1095 4.36029 12.9572 4.35986 12.7984C4.35986 12.6393 4.42308 12.4867 4.53561 12.3741C4.64813 12.2616 4.80073 12.1984 4.95986 12.1984H11.9438C12.103 12.1984 12.2556 12.2616 12.3681 12.3741C12.4807 12.4867 12.5438 12.6393 12.5438 12.7984C12.5434 12.9561 12.4809 13.1074 12.3698 13.2194C12.2587 13.3314 12.108 13.3951 11.9503 13.3968Z" fill="#FF3E4C"/>
<path d="M11.9503 16.976H4.95986C4.80101 16.976 4.64863 16.913 4.53615 16.8008C4.42368 16.6886 4.36029 16.5365 4.35986 16.3776C4.35986 16.2185 4.42308 16.0658 4.53561 15.9533C4.64813 15.8408 4.80073 15.7776 4.95986 15.7776H11.9438C12.103 15.7776 12.2556 15.8408 12.3681 15.9533C12.4807 16.0658 12.5438 16.2185 12.5438 16.3776C12.5434 16.5354 12.4809 16.6866 12.3698 16.7986C12.2587 16.9106 12.108 16.9743 11.9503 16.976Z" fill="#FF3E4C"/>
<path d="M11.9503 20.5552H4.95986C4.80073 20.5552 4.64813 20.492 4.53561 20.3795C4.42308 20.2669 4.35986 20.1143 4.35986 19.9552C4.36113 19.7969 4.4249 19.6455 4.53729 19.534C4.64967 19.4225 4.80156 19.36 4.95986 19.36H11.9438C12.1027 19.36 12.2551 19.423 12.3676 19.5352C12.48 19.6473 12.5434 19.7995 12.5438 19.9584C12.543 20.1159 12.4803 20.2667 12.3693 20.3784C12.2582 20.49 12.1077 20.5535 11.9503 20.5552Z" fill="#FF3E4C"/>
<path d="M11.9503 24.1344H4.95986C4.80073 24.1344 4.64813 24.0712 4.53561 23.9587C4.42308 23.8462 4.35986 23.6935 4.35986 23.5344C4.36029 23.3756 4.42368 23.2234 4.53615 23.1112C4.64863 22.999 4.80101 22.936 4.95986 22.936H11.9438C12.1027 22.936 12.2551 22.999 12.3676 23.1112C12.48 23.2234 12.5434 23.3756 12.5438 23.5344C12.5439 23.6924 12.4816 23.8441 12.3704 23.9564C12.2593 24.0688 12.1083 24.1327 11.9503 24.1344Z" fill="#FF3E4C"/>
<path d="M18.76 18.88V13.5616C17.4643 13.63 16.2442 14.1928 15.3512 15.1341C14.4581 16.0754 13.9602 17.3233 13.96 18.6208C13.9598 19.2861 14.0906 19.9449 14.3451 20.5596C14.5996 21.1743 14.9727 21.7328 15.4432 22.2032C15.9136 22.6736 16.4721 23.0468 17.0868 23.3012C17.7015 23.5557 18.3603 23.6866 19.0255 23.6864C20.323 23.6865 21.571 23.1887 22.5121 22.2955C23.4531 21.4024 24.0155 20.1821 24.0832 18.8864L18.76 18.88Z" fill="#FF3E4C"/>
<path d="M19.7295 13.1568V17.9568H24.5295C24.4654 16.7045 23.9391 15.5205 23.0524 14.6339C22.1658 13.7472 20.9818 13.2209 19.7295 13.1568Z" fill="#FF3E4C"/>
</svg>
