<svg width="60" height="60" viewBox="0 0 60 60" fill="none" xmlns="http://www.w3.org/2000/svg">
<path d="M3.75 22.4167C3.75 15.8827 3.75 12.6157 5.02159 10.1201C6.14011 7.92489 7.92489 6.14011 10.1201 5.02159C12.6157 3.75 15.8827 3.75 22.4167 3.75H37.5833C44.1173 3.75 47.3843 3.75 49.8799 5.02159C52.0751 6.14011 53.8599 7.92489 54.9784 10.1201C56.25 12.6157 56.25 15.8827 56.25 22.4167V37.5833C56.25 44.1173 56.25 47.3843 54.9784 49.8799C53.8599 52.0751 52.0751 53.8599 49.8799 54.9784C47.3843 56.25 44.1173 56.25 37.5833 56.25H22.4167C15.8827 56.25 12.6157 56.25 10.1201 54.9784C7.92489 53.8599 6.14011 52.0751 5.02159 49.8799C3.75 47.3843 3.75 44.1173 3.75 37.5833V22.4167Z" fill="white"/>
<path d="M41.3463 15.9805L30.1204 24.7413L18.6379 15.9805V15.9829L18.6518 15.9947V28.2622L29.9909 37.2124L41.3463 28.6079V15.9805Z" fill="#EA4335"/>
<path d="M44.294 13.8495L41.3459 15.9805V28.6078L50.6226 21.4856V17.1951C50.6226 17.1951 49.4965 11.0673 44.294 13.8495Z" fill="#FBBC05"/>
<path d="M41.3459 28.6081V44.986H48.456C48.456 44.986 50.4792 44.7777 50.6249 42.4715V21.4858L41.3459 28.6081Z" fill="#34A853"/>
<path d="M18.6523 44.9999V28.262L18.6379 28.2502L18.6523 44.9999Z" fill="#C5221F"/>
<path d="M18.6378 15.983L15.7059 13.8639C10.5034 11.0817 9.375 17.2072 9.375 17.2072V21.4976L18.6378 28.2505V15.983Z" fill="#C5221F"/>
<path d="M18.6379 15.9828V28.2503L18.6523 28.2621V15.9947L18.6379 15.9828Z" fill="#C5221F"/>
<path d="M9.375 21.4998V42.4855C9.51836 44.794 11.5439 45 11.5439 45H18.6539L18.6378 28.2504L9.375 21.4998Z" fill="#4285F4"/>
</svg>
