<svg width="28" height="28" viewBox="0 0 28 28" fill="none" xmlns="http://www.w3.org/2000/svg">
<path fill-rule="evenodd" clip-rule="evenodd" d="M8.94386 25.6667H19.0549C23.0103 25.6667 25.6666 22.8922 25.6666 18.7638V9.23618C25.6666 5.1078 23.0103 2.33333 19.0561 2.33333H8.94386C4.98969 2.33333 2.33331 5.1078 2.33331 9.23618V18.7638C2.33331 22.8922 4.98969 25.6667 8.94386 25.6667ZM9.91531 12.8333C8.30689 12.8333 6.99998 11.5246 6.99998 9.91667C6.99998 8.30869 8.30689 7 9.91531 7C11.5226 7 12.8306 8.30869 12.8306 9.91667C12.8306 11.5246 11.5226 12.8333 9.91531 12.8333ZM23.1243 17.4229C23.5149 18.4247 23.312 19.6287 22.8943 20.6207C22.3992 21.8007 21.4513 22.694 20.257 23.0841C19.7268 23.2575 19.1707 23.3333 18.6158 23.3333H8.7834C7.80497 23.3333 6.93917 23.0986 6.2294 22.6615C5.78477 22.387 5.70617 21.7537 6.03583 21.3431C6.58722 20.6569 7.13157 19.9682 7.68062 19.2735C8.72709 17.9443 9.43216 17.559 10.2158 17.8973C10.5338 18.037 10.8529 18.2465 11.1814 18.468C12.0566 19.0628 13.2731 19.8803 14.8757 18.9929C15.9723 18.3787 16.6084 17.3252 17.1623 16.4077L17.1716 16.3923C17.2108 16.328 17.2497 16.2636 17.2885 16.1994C17.4747 15.8914 17.6583 15.5875 17.8661 15.3075C18.1265 14.9572 19.0921 13.8615 20.3427 14.6417C21.1393 15.133 21.8091 15.7976 22.5259 16.5091C22.7993 16.7812 22.994 17.0906 23.1243 17.4229Z" fill="white"/>
</svg>
