<svg width="24" height="24" viewBox="0 0 24 24" fill="none" xmlns="http://www.w3.org/2000/svg">
<path fill-rule="evenodd" clip-rule="evenodd" d="M11.9725 20.3682C8.73349 20.3682 5.96649 19.8782 5.96649 17.9162C5.96649 15.9542 8.71549 14.2462 11.9725 14.2462C15.2115 14.2462 17.9785 15.9382 17.9785 17.8992C17.9785 19.8602 15.2295 20.3682 11.9725 20.3682Z" stroke="#212121" stroke-width="1.5" stroke-linecap="round" stroke-linejoin="round"/>
<path fill-rule="evenodd" clip-rule="evenodd" d="M11.9725 11.4487C14.0985 11.4487 15.8225 9.7257 15.8225 7.5997C15.8225 5.4737 14.0985 3.7497 11.9725 3.7497C9.84651 3.7497 8.12251 5.4737 8.12251 7.5997C8.11651 9.7177 9.82651 11.4417 11.9455 11.4487H11.9725Z" stroke="#212121" stroke-width="1.5" stroke-linecap="round" stroke-linejoin="round"/>
<path d="M18.3622 10.3916C19.5992 10.0606 20.5112 8.9326 20.5112 7.5896C20.5112 6.1886 19.5182 5.0186 18.1962 4.7486" stroke="#212121" stroke-width="1.5" stroke-linecap="round" stroke-linejoin="round"/>
<path d="M18.9432 13.5444C20.6972 13.5444 22.1952 14.7334 22.1952 15.7954C22.1952 16.4204 21.6782 17.1014 20.8942 17.2854" stroke="#212121" stroke-width="1.5" stroke-linecap="round" stroke-linejoin="round"/>
<path d="M5.58384 10.3916C4.34584 10.0606 3.43384 8.9326 3.43384 7.5896C3.43384 6.1886 4.42784 5.0186 5.74884 4.7486" stroke="#212121" stroke-width="1.5" stroke-linecap="round" stroke-linejoin="round"/>
<path d="M5.00182 13.5444C3.24782 13.5444 1.74982 14.7334 1.74982 15.7954C1.74982 16.4204 2.26682 17.1014 3.05182 17.2854" stroke="#212121" stroke-width="1.5" stroke-linecap="round" stroke-linejoin="round"/>
</svg>
