<svg width="32" height="39" viewBox="0 0 32 39" fill="none" xmlns="http://www.w3.org/2000/svg">
<g opacity="0.3">
<path opacity="0.3" d="M22.3472 7.88C21.4723 7.87873 20.6336 7.53051 20.0151 6.91172C19.3967 6.29293 19.0488 5.45409 19.048 4.5792V0H4.30559C3.16368 0 2.06854 0.453617 1.26108 1.26107C0.453627 2.06853 0 3.16369 0 4.3056V30.2608C0.00169574 31.4016 0.456067 32.4951 1.26334 33.3012C2.07061 34.1073 3.16479 34.56 4.30559 34.56H22.0032C23.144 34.56 24.2382 34.1073 25.0455 33.3012C25.8527 32.4951 26.3071 31.4016 26.3088 30.2608V7.88H22.3472Z" fill="#FF3E4C"/>
</g>
<path d="M26.3087 7.88H22.3471C21.4722 7.87873 20.6335 7.53051 20.015 6.91172C19.3965 6.29293 19.0487 5.45409 19.0479 4.5792V0L26.3087 7.88Z" fill="#FF3E4C"/>
<path d="M29.4305 27.2976H9.42409C8.00494 27.2976 6.85449 28.448 6.85449 29.8672V35.832C6.85449 37.2511 8.00494 38.4016 9.42409 38.4016H29.4305C30.8496 38.4016 32.0001 37.2511 32.0001 35.832V29.8672C32.0001 28.448 30.8496 27.2976 29.4305 27.2976Z" fill="#FF3E4C"/>
<path d="M14.7761 34.1408V35.304H13.5713V34.1408H14.7761Z" fill="white"/>
<path d="M16.5858 34.3648H18.709V35.304H15.293V34.4192L17.3826 31.4256H15.3202V30.4928H18.6962V31.3776L16.5858 34.3648Z" fill="white"/>
<path d="M20.5871 30.4928V35.304H19.4287V30.4928H20.5871Z" fill="white"/>
<path d="M22.5538 33.616V35.304H21.3906V30.4928H23.269C23.8402 30.4928 24.277 30.6336 24.5762 30.9184C24.7277 31.0668 24.8461 31.2457 24.9236 31.4431C25.001 31.6405 25.0359 31.8521 25.0258 32.064C25.0308 32.3438 24.9613 32.62 24.8242 32.864C24.6845 33.1026 24.4775 33.2946 24.229 33.416C23.9291 33.557 23.6003 33.6255 23.269 33.616H22.5538ZM23.8466 32.064C23.8466 31.6427 23.613 31.4293 23.1458 31.424H22.5538V32.6752H23.1458C23.613 32.6805 23.8466 32.4768 23.8466 32.064Z" fill="white"/>
<path d="M13.1518 24.4032C12.6138 24.4024 12.098 24.1881 11.7176 23.8075C11.3373 23.4268 11.1235 22.9109 11.123 22.3728V20.3424H15.1822V22.3728C15.1818 22.9112 14.9678 23.4274 14.5871 23.8081C14.2064 24.1887 13.6902 24.4028 13.1518 24.4032ZM12.1614 21.3808V22.3728C12.1614 22.6356 12.2657 22.8877 12.4514 23.0737C12.6371 23.2597 12.889 23.3644 13.1518 23.3648C13.4148 23.3644 13.6669 23.2597 13.8528 23.0738C14.0388 22.8878 14.1434 22.6358 14.1438 22.3728V21.3808H12.1614Z" fill="#FF3E4C"/>
<path d="M11.1215 20.344H13.1567V18.3088H11.1215V20.344Z" fill="#FF3E4C"/>
<path d="M13.1518 18.3104H15.187V16.2752H13.1518V18.3104Z" fill="#FF3E4C"/>
<path d="M11.1215 16.2768H13.1567V14.2416H11.1215V16.2768Z" fill="#FF3E4C"/>
<path d="M13.1518 14.2432H15.187V12.208H13.1518V14.2432Z" fill="#FF3E4C"/>
</svg>
