<svg width="3" height="12" viewBox="0 0 3 12" fill="none" xmlns="http://www.w3.org/2000/svg">
<path fill-rule="evenodd" clip-rule="evenodd" d="M1.26767 7.26345C1.96547 7.26345 2.53639 6.69252 2.53639 5.99472C2.53639 5.29692 1.96547 4.73657 1.26767 4.73657C0.569869 4.73657 0 5.29692 0 5.99472C0 6.69252 0.569869 7.26345 1.26767 7.26345ZM1.26767 2.52687C1.96547 2.52687 2.53639 1.96652 2.53639 1.25815C2.53639 0.560349 1.96547 -5.04146e-06 1.26767 -5.04146e-06C0.569869 -5.04146e-06 0 0.560349 0 1.25815C0 1.96652 0.569869 2.52687 1.26767 2.52687Z" fill="#878787"/>
<path d="M2.53639 10.7313C2.53639 11.4291 1.96547 12 1.26767 12C0.569869 12 0 11.4291 0 10.7313C0 10.0335 0.569869 9.47312 1.26767 9.47312C1.96547 9.47312 2.53639 10.0335 2.53639 10.7313Z" fill="#878787"/>
</svg>
