<svg width="32" height="39" viewBox="0 0 32 39" fill="none" xmlns="http://www.w3.org/2000/svg">
<g opacity="0.3">
<path opacity="0.3" d="M22.3472 7.88C21.4723 7.87873 20.6336 7.53051 20.0151 6.91172C19.3967 6.29293 19.0488 5.45409 19.048 4.5792V0H4.30559C3.16368 0 2.06854 0.453617 1.26108 1.26107C0.453627 2.06853 0 3.16369 0 4.3056V30.2608C0.00169574 31.4016 0.456067 32.4951 1.26334 33.3012C2.07061 34.1073 3.16479 34.56 4.30559 34.56H22.0032C23.144 34.56 24.2382 34.1073 25.0455 33.3012C25.8527 32.4951 26.3071 31.4016 26.3088 30.2608V7.88H22.3472Z" fill="#FF3E4C"/>
</g>
<path d="M26.3088 7.88H22.3472C21.4723 7.87873 20.6336 7.53051 20.0151 6.91172C19.3966 6.29293 19.0488 5.45409 19.048 4.5792V0L26.3088 7.88Z" fill="#FF3E4C"/>
<path d="M29.4304 27.2976H9.424C8.00485 27.2976 6.8544 28.448 6.8544 29.8672V35.832C6.8544 37.2511 8.00485 38.4016 9.424 38.4016H29.4304C30.8496 38.4016 32 37.2511 32 35.832V29.8672C32 28.448 30.8496 27.2976 29.4304 27.2976Z" fill="#FF3E4C"/>
<path d="M14.776 34.1408V35.304H13.5712V34.1408H14.776Z" fill="white"/>
<path d="M16.5856 34.3648H18.7088V35.304H15.2928V34.4192L17.3824 31.4256H15.32V30.4928H18.696V31.3776L16.5856 34.3648Z" fill="white"/>
<path d="M20.5872 30.4928V35.304H19.4288V30.4928H20.5872Z" fill="white"/>
<path d="M22.5536 33.616V35.304H21.3904V30.4928H23.2688C23.84 30.4928 24.2768 30.6336 24.576 30.9184C24.7275 31.0668 24.8458 31.2457 24.9233 31.4431C25.0008 31.6405 25.0357 31.8521 25.0256 32.064C25.0306 32.3438 24.961 32.62 24.824 32.864C24.6843 33.1026 24.4772 33.2946 24.2288 33.416C23.9289 33.557 23.6 33.6255 23.2688 33.616H22.5536ZM23.8464 32.064C23.8464 31.6427 23.6128 31.4293 23.1456 31.424H22.5536V32.6752H23.1456C23.6128 32.6805 23.8464 32.4768 23.8464 32.064Z" fill="white"/>
<path d="M13.152 24.4032C12.6139 24.4024 12.0981 24.1881 11.7178 23.8075C11.3375 23.4268 11.1236 22.9109 11.1232 22.3728V20.3424H15.1824V22.3728C15.182 22.9112 14.9679 23.4274 14.5872 23.8081C14.2065 24.1887 13.6904 24.4028 13.152 24.4032ZM12.1616 21.3808V22.3728C12.1616 22.6356 12.2659 22.8877 12.4516 23.0737C12.6373 23.2597 12.8892 23.3644 13.152 23.3648C13.415 23.3644 13.667 23.2597 13.853 23.0738C14.0389 22.8878 14.1436 22.6358 14.144 22.3728V21.3808H12.1616Z" fill="#FF3E4C"/>
<path d="M11.1216 20.344H13.1568V18.3088H11.1216V20.344Z" fill="#FF3E4C"/>
<path d="M13.152 18.3104H15.1872V16.2752H13.152V18.3104Z" fill="#FF3E4C"/>
<path d="M11.1216 16.2768H13.1568V14.2416H11.1216V16.2768Z" fill="#FF3E4C"/>
<path d="M13.152 14.2432H15.1872V12.208H13.152V14.2432Z" fill="#FF3E4C"/>
</svg>
