<svg width="28" height="28" viewBox="0 0 28 28" fill="none" xmlns="http://www.w3.org/2000/svg">
<path d="M23.3335 14.32C23.3335 14.763 23.0043 15.1291 22.5772 15.187L22.4585 15.195L4.95849 15.195C4.47525 15.195 4.08349 14.8033 4.08349 14.32C4.08349 13.8771 4.41267 13.511 4.83976 13.453L4.95849 13.445L22.4585 13.445C22.9417 13.445 23.3335 13.8368 23.3335 14.32Z" fill="#002397"/>
<path d="M12.634 20.7284C12.9764 21.0694 12.9776 21.6234 12.6367 21.9659C12.3267 22.2772 11.8406 22.3065 11.4975 22.053L11.3992 21.9685L4.34088 14.9405C4.02864 14.6296 4.00024 14.1418 4.25568 13.7988L4.34083 13.7005L11.3992 6.67132C11.7416 6.33032 12.2956 6.33147 12.6366 6.67388C12.9466 6.98517 12.9738 7.47134 12.719 7.81336L12.634 7.91132L6.19867 14.3208L12.634 20.7284Z" fill="#002397"/>
</svg>
