<svg width="32" height="39" viewBox="0 0 32 39" fill="none" xmlns="http://www.w3.org/2000/svg">
<g opacity="0.3">
<path opacity="0.3" d="M22.3461 7.87961C21.4714 7.87876 20.6328 7.53089 20.0143 6.91239C19.3957 6.29388 19.0479 5.45525 19.0471 4.58055V2.97351e-07H4.30699C3.74147 -0.000209857 3.18143 0.110978 2.65889 0.32725C2.13635 0.543521 1.66156 0.860632 1.2616 1.26044C0.861636 1.66026 0.54436 2.13495 0.327894 2.65741C0.111428 3.17986 -3.90477e-08 3.73985 0 4.30537V30.2593C-3.90476e-08 30.8248 0.111428 31.3848 0.327894 31.9073C0.54436 32.4297 0.861636 32.9044 1.2616 33.3042C1.66156 33.704 2.13635 34.0211 2.65889 34.2374C3.18143 34.4537 3.74147 34.5649 4.30699 34.5647H22.0021C22.5675 34.5647 23.1273 34.4533 23.6497 34.237C24.172 34.0206 24.6467 33.7034 25.0465 33.3036C25.4463 32.9039 25.7634 32.4292 25.9798 31.9069C26.1961 31.3845 26.3075 30.8247 26.3075 30.2593V7.87961H22.3461Z" fill="#0072FF"/>
</g>
<path d="M26.3073 7.87961H22.3459C21.4712 7.87876 20.6326 7.53089 20.0141 6.91239C19.3956 6.29388 19.0477 5.45525 19.0469 4.58055V0L26.3073 7.87961Z" fill="#0072FF"/>
<path d="M20.8948 13.3961H4.37718C4.21848 13.3961 4.06629 13.3331 3.95408 13.2209C3.84186 13.1086 3.77881 12.9565 3.77881 12.7978C3.7786 12.719 3.79393 12.6411 3.82391 12.5683C3.85388 12.4955 3.89792 12.4293 3.95351 12.3736C4.00909 12.3179 4.07513 12.2737 4.14784 12.2435C4.22054 12.2133 4.29847 12.1978 4.37718 12.1978H20.8948C21.0539 12.1978 21.2065 12.261 21.319 12.3735C21.4315 12.486 21.4947 12.6386 21.4947 12.7978C21.4943 12.9566 21.4309 13.1088 21.3184 13.221C21.206 13.3332 21.0536 13.3961 20.8948 13.3961Z" fill="#0072FF"/>
<path d="M20.8948 16.9752H4.37718C4.21848 16.9752 4.06629 16.9121 3.95408 16.7999C3.84186 16.6877 3.77881 16.5355 3.77881 16.3768C3.7786 16.2981 3.79393 16.2201 3.82391 16.1473C3.85388 16.0745 3.89792 16.0084 3.95351 15.9526C4.00909 15.8969 4.07513 15.8527 4.14784 15.8225C4.22054 15.7924 4.29847 15.7768 4.37718 15.7768H20.8948C21.0539 15.7768 21.2065 15.84 21.319 15.9525C21.4315 16.065 21.4947 16.2177 21.4947 16.3768C21.4943 16.5356 21.4309 16.6878 21.3184 16.8C21.206 16.9122 21.0536 16.9752 20.8948 16.9752Z" fill="#0072FF"/>
<path d="M20.8948 20.5542H4.37718C4.29847 20.5542 4.22054 20.5386 4.14784 20.5085C4.07513 20.4783 4.00909 20.4341 3.95351 20.3784C3.89792 20.3226 3.85388 20.2565 3.82391 20.1837C3.79393 20.1109 3.7786 20.0329 3.77881 19.9542C3.77881 19.7955 3.84186 19.6433 3.95408 19.5311C4.06629 19.4189 4.21848 19.3558 4.37718 19.3558H20.8948C21.0536 19.3558 21.206 19.4188 21.3184 19.531C21.4309 19.6432 21.4943 19.7954 21.4947 19.9542C21.4947 20.1133 21.4315 20.2659 21.319 20.3784C21.2065 20.491 21.0539 20.5542 20.8948 20.5542Z" fill="#0072FF"/>
<path d="M14.3799 24.1332H4.37718C4.29847 24.1332 4.22054 24.1177 4.14784 24.0875C4.07513 24.0573 4.00909 24.0131 3.95351 23.9574C3.89792 23.9016 3.85388 23.8355 3.82391 23.7627C3.79393 23.6899 3.7786 23.612 3.77881 23.5332C3.77881 23.3745 3.84186 23.2223 3.95408 23.1101C4.06629 22.9979 4.21848 22.9349 4.37718 22.9349H14.3799C14.5386 22.9349 14.6908 22.9979 14.803 23.1101C14.9152 23.2223 14.9782 23.3745 14.9782 23.5332C14.9785 23.612 14.9632 23.6899 14.9332 23.7627C14.9032 23.8355 14.8592 23.9016 14.8036 23.9574C14.748 24.0131 14.6819 24.0573 14.6092 24.0875C14.5365 24.1177 14.4586 24.1332 14.3799 24.1332Z" fill="#0072FF"/>
<path d="M29.4303 27.2962H9.42493C8.00585 27.2962 6.85547 28.4466 6.85547 29.8657V35.8302C6.85547 37.2493 8.00585 38.3997 9.42493 38.3997H29.4303C30.8494 38.3997 31.9998 37.2493 31.9998 35.8302V29.8657C31.9998 28.4466 30.8494 27.2962 29.4303 27.2962Z" fill="#0072FF"/>
<path d="M12.1945 34.1391V35.3022H10.9897V34.1391H12.1945Z" fill="white"/>
<path d="M16.8247 34.1423C16.6244 34.5061 16.3218 34.8031 15.9544 34.9967C15.5409 35.2081 15.0811 35.3132 14.6168 35.3022H12.7993V30.4913H14.6168C15.0815 30.4798 15.5419 30.5825 15.9576 30.7905C16.3235 30.9805 16.6252 31.2744 16.8247 31.6352C17.0316 32.0193 17.1357 32.4503 17.1271 32.8864C17.1353 33.324 17.0312 33.7564 16.8247 34.1423ZM15.5736 33.9007C15.7036 33.7672 15.8044 33.6081 15.8694 33.4334C15.9344 33.2587 15.9623 33.0724 15.9512 32.8864C15.9624 32.7006 15.9345 32.5145 15.8695 32.34C15.8045 32.1656 15.7037 32.0068 15.5736 31.8736C15.2821 31.618 14.9014 31.4881 14.5144 31.512H13.9657V34.2607H14.516C14.9021 34.284 15.2819 34.1547 15.5736 33.9007Z" fill="white"/>
<path d="M21.3092 30.7329C21.6753 30.9408 21.9778 31.2444 22.1844 31.6112C22.4008 31.9986 22.5112 32.4363 22.5044 32.88C22.5117 33.3247 22.4013 33.7635 22.1844 34.1519C21.9771 34.5201 21.6735 34.8249 21.306 35.0334C20.932 35.247 20.508 35.3575 20.0773 35.3534C19.6466 35.3572 19.2226 35.2468 18.8485 35.0334C18.4812 34.8253 18.1779 34.5204 17.9718 34.1519C17.7541 33.7638 17.6437 33.3248 17.6518 32.88C17.6435 32.4361 17.754 31.9981 17.9718 31.6112C18.179 31.2444 18.482 30.9407 18.8485 30.7329C19.2226 30.5195 19.6466 30.4091 20.0773 30.4129C20.509 30.4088 20.9341 30.5192 21.3092 30.7329ZM19.1653 31.8688C18.9293 32.1511 18.8092 32.5125 18.8293 32.88C18.8092 33.2459 18.9293 33.6058 19.1653 33.8863C19.2803 34.0113 19.4212 34.1095 19.5782 34.1742C19.7352 34.2389 19.9045 34.2684 20.0741 34.2607C20.2432 34.2679 20.4118 34.2382 20.5682 34.1735C20.7246 34.1089 20.865 34.0108 20.9796 33.8863C21.2168 33.6063 21.3381 33.2464 21.3188 32.88C21.338 32.5141 21.218 32.1545 20.9828 31.8736C20.8679 31.7486 20.727 31.6502 20.57 31.5856C20.413 31.5209 20.2437 31.4914 20.0741 31.4992C19.9049 31.4914 19.736 31.5205 19.5791 31.5843C19.4222 31.6481 19.2811 31.7451 19.1653 31.8688Z" fill="white"/>
<path d="M26.8753 30.9265C27.2811 31.2566 27.5571 31.7196 27.6545 32.2336H26.4226C26.3394 32.0206 26.1939 31.8376 26.005 31.7088C25.8059 31.5792 25.5722 31.5128 25.3346 31.5184C25.1778 31.5134 25.0218 31.5445 24.8789 31.6095C24.7361 31.6744 24.6101 31.7714 24.5107 31.8928C24.2879 32.1778 24.1744 32.533 24.1907 32.8944C24.1744 33.2542 24.288 33.608 24.5107 33.8911C24.6109 34.0113 24.7371 34.1071 24.8799 34.1711C25.0227 34.2352 25.1782 34.2658 25.3346 34.2607C25.5723 34.267 25.8062 34.2006 26.005 34.0703C26.1928 33.9438 26.3383 33.7637 26.4226 33.5535H27.6545C27.5555 34.066 27.2797 34.5275 26.8753 34.8575C26.4401 35.1897 25.9025 35.3595 25.3554 35.3374C24.9243 35.3465 24.4988 35.2393 24.1235 35.027C23.7722 34.8229 23.4873 34.5218 23.3027 34.1599C23.1044 33.7629 23.0056 33.3236 23.0147 32.88C23.0057 32.4363 23.1045 31.9971 23.3027 31.6C23.4873 31.2381 23.7722 30.937 24.1235 30.7329C24.4988 30.5206 24.9243 30.4134 25.3554 30.4225C25.9053 30.4079 26.443 30.5862 26.8753 30.9265Z" fill="white"/>
</svg>
