<svg width="110" height="91" viewBox="0 0 110 91" fill="none" xmlns="http://www.w3.org/2000/svg">
<path d="M10.6154 40.3294C2.96102 40.9138 1.29293 34.1896 1.39804 30.0218C1.41116 29.5017 1.83073 29.092 2.33096 29.0684L37.0158 27.4283C37.5339 27.4038 37.9666 27.8023 38.0035 28.3379L38.6302 37.4226C38.6702 38.0022 38.2382 38.5154 37.6778 38.549C31.292 38.9315 18.4142 39.734 10.6154 40.3294Z" fill="url(#paint0_linear_13_2484)"/>
<path d="M10.6154 40.3294C2.96102 40.9138 1.29293 34.1896 1.39804 30.0218C1.41116 29.5017 1.83073 29.092 2.33096 29.0684L37.0158 27.4283C37.5339 27.4038 37.9666 27.8023 38.0035 28.3379L38.6302 37.4226C38.6702 38.0022 38.2382 38.5154 37.6778 38.549C31.292 38.9315 18.4142 39.734 10.6154 40.3294Z" fill="url(#paint1_linear_13_2484)"/>
<path d="M10.6154 40.3294C2.96102 40.9138 1.29293 34.1896 1.39804 30.0218C1.41116 29.5017 1.83073 29.092 2.33096 29.0684L37.0158 27.4283C37.5339 27.4038 37.9666 27.8023 38.0035 28.3379L38.6302 37.4226C38.6702 38.0022 38.2382 38.5154 37.6778 38.549C31.292 38.9315 18.4142 39.734 10.6154 40.3294Z" stroke="url(#paint2_linear_13_2484)" stroke-width="0.5"/>
<path d="M16.8157 48.8954C10.6093 49.2743 8.33675 42.9946 7.84451 38.9813C7.7733 38.4006 8.22289 37.8937 8.78362 37.8769L37.8459 37.0079C38.3356 36.9933 38.7476 37.3615 38.809 37.8687L39.8708 46.6328C39.9443 47.239 39.4962 47.7939 38.9109 47.8185C33.5536 48.0432 23.1447 48.509 16.8157 48.8954Z" fill="url(#paint3_linear_13_2484)"/>
<path d="M16.8157 48.8954C10.6093 49.2743 8.33675 42.9946 7.84451 38.9813C7.7733 38.4006 8.22289 37.8937 8.78362 37.8769L37.8459 37.0079C38.3356 36.9933 38.7476 37.3615 38.809 37.8687L39.8708 46.6328C39.9443 47.239 39.4962 47.7939 38.9109 47.8185C33.5536 48.0432 23.1447 48.509 16.8157 48.8954Z" fill="url(#paint4_linear_13_2484)"/>
<path d="M16.8157 48.8954C10.6093 49.2743 8.33675 42.9946 7.84451 38.9813C7.7733 38.4006 8.22289 37.8937 8.78362 37.8769L37.8459 37.0079C38.3356 36.9933 38.7476 37.3615 38.809 37.8687L39.8708 46.6328C39.9443 47.239 39.4962 47.7939 38.9109 47.8185C33.5536 48.0432 23.1447 48.509 16.8157 48.8954Z" stroke="url(#paint5_linear_13_2484)" stroke-width="0.5"/>
<path d="M99.3851 40.3294C107.039 40.9138 108.708 34.1896 108.602 30.0218C108.589 29.5017 108.17 29.092 107.67 29.0684L72.9846 27.4283C72.4666 27.4038 72.0339 27.8023 71.997 28.3379L71.3703 37.4226C71.3303 38.0022 71.7622 38.5154 72.3227 38.549C78.7085 38.9315 91.5863 39.734 99.3851 40.3294Z" fill="url(#paint6_linear_13_2484)"/>
<path d="M99.3851 40.3294C107.039 40.9138 108.708 34.1896 108.602 30.0218C108.589 29.5017 108.17 29.092 107.67 29.0684L72.9846 27.4283C72.4666 27.4038 72.0339 27.8023 71.997 28.3379L71.3703 37.4226C71.3303 38.0022 71.7622 38.5154 72.3227 38.549C78.7085 38.9315 91.5863 39.734 99.3851 40.3294Z" fill="url(#paint7_linear_13_2484)"/>
<path d="M99.3851 40.3294C107.039 40.9138 108.708 34.1896 108.602 30.0218C108.589 29.5017 108.17 29.092 107.67 29.0684L72.9846 27.4283C72.4666 27.4038 72.0339 27.8023 71.997 28.3379L71.3703 37.4226C71.3303 38.0022 71.7622 38.5154 72.3227 38.549C78.7085 38.9315 91.5863 39.734 99.3851 40.3294Z" stroke="url(#paint8_linear_13_2484)" stroke-width="0.5"/>
<path d="M93.1838 48.8954C99.3903 49.2743 101.663 42.9946 102.155 38.9813C102.226 38.4006 101.777 37.8937 101.216 37.8769L72.1536 37.0079C71.6639 36.9933 71.2519 37.3615 71.1905 37.8687L70.1287 46.6328C70.0553 47.239 70.5033 47.7939 71.0886 47.8185C76.446 48.0432 86.8548 48.509 93.1838 48.8954Z" fill="url(#paint9_linear_13_2484)"/>
<path d="M93.1838 48.8954C99.3903 49.2743 101.663 42.9946 102.155 38.9813C102.226 38.4006 101.777 37.8937 101.216 37.8769L72.1536 37.0079C71.6639 36.9933 71.2519 37.3615 71.1905 37.8687L70.1287 46.6328C70.0553 47.239 70.5033 47.7939 71.0886 47.8185C76.446 48.0432 86.8548 48.509 93.1838 48.8954Z" fill="url(#paint10_linear_13_2484)"/>
<path d="M93.1838 48.8954C99.3903 49.2743 101.663 42.9946 102.155 38.9813C102.226 38.4006 101.777 37.8937 101.216 37.8769L72.1536 37.0079C71.6639 36.9933 71.2519 37.3615 71.1905 37.8687L70.1287 46.6328C70.0553 47.239 70.5033 47.7939 71.0886 47.8185C76.446 48.0432 86.8548 48.509 93.1838 48.8954Z" stroke="url(#paint11_linear_13_2484)" stroke-width="0.5"/>
<path d="M50.3516 2.5727C52.9203 0.994579 56.1582 0.994579 58.7269 2.5727L87.7336 20.393C90.1025 21.8483 91.5459 24.4292 91.5459 27.2094V63.731C91.5459 66.5113 90.1025 69.0921 87.7336 70.5474L58.7269 88.3677C56.1582 89.9459 52.9203 89.9459 50.3516 88.3677L21.3449 70.5474C18.976 69.0921 17.5326 66.5113 17.5326 63.731V27.2094C17.5326 24.4292 18.976 21.8483 21.3449 20.393L50.3516 2.5727Z" fill="url(#paint12_linear_13_2484)"/>
<path d="M50.3516 2.5727C52.9203 0.994579 56.1582 0.994579 58.7269 2.5727L87.7336 20.393C90.1025 21.8483 91.5459 24.4292 91.5459 27.2094V63.731C91.5459 66.5113 90.1025 69.0921 87.7336 70.5474L58.7269 88.3677C56.1582 89.9459 52.9203 89.9459 50.3516 88.3677L21.3449 70.5474C18.976 69.0921 17.5326 66.5113 17.5326 63.731V27.2094C17.5326 24.4292 18.976 21.8483 21.3449 20.393L50.3516 2.5727Z" fill="url(#paint13_radial_13_2484)"/>
<g filter="url(#filter0_i_13_2484)">
<path d="M50.3513 9.15393C52.9201 7.57581 56.1579 7.57582 58.7266 9.15394L82.3771 23.6836C84.746 25.139 86.1894 27.7198 86.1894 30.5V60.4404C86.1894 63.2207 84.746 65.8015 82.3771 67.2568L58.7266 81.7865C56.1579 83.3647 52.9201 83.3647 50.3513 81.7865L26.7009 67.2568C24.332 65.8015 22.8885 63.2207 22.8885 60.4404V30.5C22.8885 27.7198 24.332 25.139 26.7009 23.6836L50.3513 9.15393Z" fill="url(#paint14_linear_13_2484)"/>
<path d="M50.3513 9.15393C52.9201 7.57581 56.1579 7.57582 58.7266 9.15394L82.3771 23.6836C84.746 25.139 86.1894 27.7198 86.1894 30.5V60.4404C86.1894 63.2207 84.746 65.8015 82.3771 67.2568L58.7266 81.7865C56.1579 83.3647 52.9201 83.3647 50.3513 81.7865L26.7009 67.2568C24.332 65.8015 22.8885 63.2207 22.8885 60.4404V30.5C22.8885 27.7198 24.332 25.139 26.7009 23.6836L50.3513 9.15393Z" fill="url(#paint15_linear_13_2484)"/>
<path d="M50.3513 9.15393C52.9201 7.57581 56.1579 7.57582 58.7266 9.15394L82.3771 23.6836C84.746 25.139 86.1894 27.7198 86.1894 30.5V60.4404C86.1894 63.2207 84.746 65.8015 82.3771 67.2568L58.7266 81.7865C56.1579 83.3647 52.9201 83.3647 50.3513 81.7865L26.7009 67.2568C24.332 65.8015 22.8885 63.2207 22.8885 60.4404V30.5C22.8885 27.7198 24.332 25.139 26.7009 23.6836L50.3513 9.15393Z" fill="url(#paint16_linear_13_2484)"/>
</g>
<path d="M50.3515 12.1454C52.9203 10.5673 56.1581 10.5673 58.7269 12.1454L79.9427 25.1794C82.3116 26.6347 83.755 29.2155 83.755 31.9958V58.9447C83.755 61.7249 82.3116 64.3058 79.9427 65.7611L58.7269 78.7951C56.1581 80.3732 52.9203 80.3732 50.3515 78.7951L29.1357 65.7611C26.7668 64.3058 25.3234 61.7249 25.3234 58.9447V31.9958C25.3234 29.2155 26.7668 26.6347 29.1357 25.1794L50.3515 12.1454Z" fill="url(#paint17_linear_13_2484)"/>
<g filter="url(#filter1_i_13_2484)">
<path d="M50.3513 12.7437C52.9201 11.1656 56.1579 11.1656 58.7266 12.7437L79.4555 25.4785C81.8244 26.9338 83.2678 29.5147 83.2678 32.2949V58.6456C83.2678 61.4258 81.8244 64.0066 79.4555 65.462L58.7266 78.1968C56.1579 79.7749 52.9201 79.7749 50.3513 78.1968L29.6224 65.462C27.2535 64.0066 25.8101 61.4258 25.8101 58.6456V32.2949C25.8101 29.5147 27.2535 26.9338 29.6224 25.4785L50.3513 12.7437Z" fill="url(#paint18_radial_13_2484)"/>
<path d="M50.3513 12.7437C52.9201 11.1656 56.1579 11.1656 58.7266 12.7437L79.4555 25.4785C81.8244 26.9338 83.2678 29.5147 83.2678 32.2949V58.6456C83.2678 61.4258 81.8244 64.0066 79.4555 65.462L58.7266 78.1968C56.1579 79.7749 52.9201 79.7749 50.3513 78.1968L29.6224 65.462C27.2535 64.0066 25.8101 61.4258 25.8101 58.6456V32.2949C25.8101 29.5147 27.2535 26.9338 29.6224 25.4785L50.3513 12.7437Z" fill="url(#paint19_angular_13_2484)" fill-opacity="0.3"/>
</g>
<path d="M54.5452 24.5299L61.2064 35.9302L73.4541 39.1486L65.3233 49.4127L66.2316 62.802L54.5452 57.7453L42.8588 62.802L43.767 49.4127L35.6362 39.1486L47.8839 35.9302L54.5452 24.5299Z" fill="#ECFEFF"/>
<path d="M54.5447 25.3935L60.934 36.3285L72.6819 39.4154L64.8829 49.2606L65.7541 62.1034L54.5447 57.2531L43.3353 62.1034L44.2065 49.2606L36.4075 39.4154L48.1553 36.3285L54.5447 25.3935Z" fill="#EAFFFA"/>
<path d="M54.5449 44.8227V25.1199L61.037 36.1875L54.5449 44.8227Z" fill="url(#paint20_linear_13_2484)" fill-opacity="0.1"/>
<path d="M54.5449 44.8226L72.6417 39.5551L61.037 36.1875L54.5449 44.8226Z" fill="url(#paint21_linear_13_2484)" fill-opacity="0.5"/>
<path d="M54.5447 44.8227L72.6305 39.5552L65.0944 49.1403L54.5447 44.8227Z" fill="url(#paint22_linear_13_2484)"/>
<path d="M54.5446 44.8227L65.5001 61.6614L65.0943 49.1403L54.5446 44.8227Z" fill="url(#paint23_linear_13_2484)"/>
<path d="M54.1389 45.2544L36.2856 39.3825L48.0526 36.5329L54.1389 45.2544Z" fill="url(#paint24_linear_13_2484)"/>
<path d="M54.5449 44.8228L36.2859 39.3826L44.2387 49.3131L54.5449 44.8228Z" fill="url(#paint25_linear_13_2484)"/>
<path d="M54.5452 44.8226L65.5007 61.6613L54.5452 56.9983L54.5452 44.8226Z" fill="url(#paint26_linear_13_2484)"/>
<path d="M54.5446 44.8226L43.5892 61.6613L54.5446 56.9983L54.5446 44.8226Z" fill="url(#paint27_linear_13_2484)"/>
<path d="M54.5448 44.8227L43.5894 61.6614L44.1409 49.4732L54.5448 44.8227Z" fill="url(#paint28_linear_13_2484)"/>
<path d="M54.5447 25.3935L60.934 36.3285L72.6819 39.4154L64.8829 49.2606L65.7541 62.1034L54.5447 57.2531L43.3353 62.1034L44.2065 49.2606L36.4075 39.4154L48.1553 36.3285L54.5447 25.3935Z" fill="url(#paint29_radial_13_2484)" fill-opacity="0.4"/>
<mask id="mask0_13_2484" style="mask-type:alpha" maskUnits="userSpaceOnUse" x="35" y="24" width="39" height="39">
<path d="M54.5452 24.5299L61.2064 35.9302L73.4541 39.1486L65.3233 49.4127L66.2316 62.802L54.5452 57.7453L42.8588 62.802L43.767 49.4127L35.6362 39.1486L47.8839 35.9302L54.5452 24.5299Z" fill="#ECFEFF"/>
<path d="M54.5447 25.3935L60.934 36.3285L72.6819 39.4154L64.8829 49.2606L65.7541 62.1034L54.5447 57.2531L43.3353 62.1034L44.2065 49.2606L36.4075 39.4154L48.1553 36.3285L54.5447 25.3935Z" fill="#EAFFFA"/>
<path d="M54.5449 44.8227V25.1199L61.037 36.1875L54.5449 44.8227Z" fill="url(#paint30_linear_13_2484)" fill-opacity="0.1"/>
<path d="M54.5449 44.8226L72.6417 39.5551L61.037 36.1875L54.5449 44.8226Z" fill="url(#paint31_linear_13_2484)" fill-opacity="0.5"/>
<path d="M54.5447 44.8227L72.6305 39.5552L65.0944 49.1403L54.5447 44.8227Z" fill="url(#paint32_linear_13_2484)"/>
<path d="M54.5446 44.8227L65.5001 61.6614L65.0943 49.1403L54.5446 44.8227Z" fill="url(#paint33_linear_13_2484)"/>
<path d="M54.1389 45.2544L36.2856 39.3825L48.0526 36.5329L54.1389 45.2544Z" fill="url(#paint34_linear_13_2484)"/>
<path d="M54.5449 44.8228L36.2859 39.3826L44.2387 49.3131L54.5449 44.8228Z" fill="url(#paint35_linear_13_2484)"/>
<path d="M54.5452 44.8226L65.5007 61.6613L54.5452 56.9983L54.5452 44.8226Z" fill="url(#paint36_linear_13_2484)"/>
<path d="M54.5446 44.8226L43.5892 61.6613L54.5446 56.9983L54.5446 44.8226Z" fill="url(#paint37_linear_13_2484)"/>
<path d="M54.5448 44.8227L43.5894 61.6614L44.1409 49.4732L54.5448 44.8227Z" fill="url(#paint38_linear_13_2484)"/>
<path d="M54.5447 25.3935L60.934 36.3285L72.6819 39.4154L64.8829 49.2606L65.7541 62.1034L54.5447 57.2531L43.3353 62.1034L44.2065 49.2606L36.4075 39.4154L48.1553 36.3285L54.5447 25.3935Z" fill="url(#paint39_radial_13_2484)" fill-opacity="0.4"/>
</mask>
<g mask="url(#mask0_13_2484)">
<g style="mix-blend-mode:color">
<rect x="24.1772" y="14.3589" width="55.6636" height="59.2309" fill="#FED746"/>
</g>
</g>
<defs>
<filter id="filter0_i_13_2484" x="22.8887" y="7.97034" width="63.3008" height="77.9998" filterUnits="userSpaceOnUse" color-interpolation-filters="sRGB">
<feFlood flood-opacity="0" result="BackgroundImageFix"/>
<feBlend mode="normal" in="SourceGraphic" in2="BackgroundImageFix" result="shape"/>
<feColorMatrix in="SourceAlpha" type="matrix" values="0 0 0 0 0 0 0 0 0 0 0 0 0 0 0 0 0 0 127 0" result="hardAlpha"/>
<feOffset dy="4"/>
<feGaussianBlur stdDeviation="1.5"/>
<feComposite in2="hardAlpha" operator="arithmetic" k2="-1" k3="1"/>
<feColorMatrix type="matrix" values="0 0 0 0 0.645833 0 0 0 0 0.312946 0 0 0 0 0.0861111 0 0 0 0.25 0"/>
<feBlend mode="normal" in2="shape" result="effect1_innerShadow_13_2484"/>
</filter>
<filter id="filter1_i_13_2484" x="21.8101" y="3.56009" width="61.458" height="75.8203" filterUnits="userSpaceOnUse" color-interpolation-filters="sRGB">
<feFlood flood-opacity="0" result="BackgroundImageFix"/>
<feBlend mode="normal" in="SourceGraphic" in2="BackgroundImageFix" result="shape"/>
<feColorMatrix in="SourceAlpha" type="matrix" values="0 0 0 0 0 0 0 0 0 0 0 0 0 0 0 0 0 0 127 0" result="hardAlpha"/>
<feOffset dx="-4" dy="-8"/>
<feGaussianBlur stdDeviation="12"/>
<feComposite in2="hardAlpha" operator="arithmetic" k2="-1" k3="1"/>
<feColorMatrix type="matrix" values="0 0 0 0 0.8125 0 0 0 0 0.475168 0 0 0 0 0 0 0 0 0.15 0"/>
<feBlend mode="normal" in2="shape" result="effect1_innerShadow_13_2484"/>
</filter>
<linearGradient id="paint0_linear_13_2484" x1="2.25539" y1="33.4176" x2="21.9225" y2="35.3557" gradientUnits="userSpaceOnUse">
<stop stop-color="#FDFBCC"/>
<stop offset="0.4375" stop-color="#DFC360"/>
<stop offset="1" stop-color="#D19337"/>
</linearGradient>
<linearGradient id="paint1_linear_13_2484" x1="13.2345" y1="26.6504" x2="21.3716" y2="46.3846" gradientUnits="userSpaceOnUse">
<stop offset="0.165044" stop-color="#FFE255" stop-opacity="0.6"/>
<stop offset="1" stop-color="#FFEB86" stop-opacity="0"/>
</linearGradient>
<linearGradient id="paint2_linear_13_2484" x1="-0.379348" y1="28.8744" x2="12.4665" y2="43.0314" gradientUnits="userSpaceOnUse">
<stop stop-color="#FBF9C5"/>
<stop offset="0.458333" stop-color="#F5D24E"/>
<stop offset="1" stop-color="#FFC672"/>
</linearGradient>
<linearGradient id="paint3_linear_13_2484" x1="8.96692" y1="42.0639" x2="25.4724" y2="41.2961" gradientUnits="userSpaceOnUse">
<stop stop-color="#FDF8CC"/>
<stop offset="0.4375" stop-color="#DFBB60"/>
<stop offset="1" stop-color="#D18137"/>
</linearGradient>
<linearGradient id="paint4_linear_13_2484" x1="17.4985" y1="35.6868" x2="26.6913" y2="54.8751" gradientUnits="userSpaceOnUse">
<stop offset="0.165044" stop-color="#FFE255" stop-opacity="0.6"/>
<stop offset="1" stop-color="#FFEB86" stop-opacity="0"/>
</linearGradient>
<linearGradient id="paint5_linear_13_2484" x1="6.1935" y1="37.6394" x2="20.3272" y2="49.6154" gradientUnits="userSpaceOnUse">
<stop stop-color="#FFFCE1"/>
<stop offset="0.458333" stop-color="#EBC855"/>
<stop offset="1" stop-color="#EAB415"/>
</linearGradient>
<linearGradient id="paint6_linear_13_2484" x1="107.745" y1="33.4176" x2="88.078" y2="35.3557" gradientUnits="userSpaceOnUse">
<stop stop-color="#FDFBCC"/>
<stop offset="0.4375" stop-color="#DFC360"/>
<stop offset="1" stop-color="#D19337"/>
</linearGradient>
<linearGradient id="paint7_linear_13_2484" x1="96.766" y1="26.6504" x2="88.6289" y2="46.3846" gradientUnits="userSpaceOnUse">
<stop offset="0.165044" stop-color="#FFE255" stop-opacity="0.6"/>
<stop offset="1" stop-color="#FFEB86" stop-opacity="0"/>
</linearGradient>
<linearGradient id="paint8_linear_13_2484" x1="110.38" y1="28.8744" x2="97.534" y2="43.0314" gradientUnits="userSpaceOnUse">
<stop stop-color="#FBF9C5"/>
<stop offset="0.458333" stop-color="#F5D24E"/>
<stop offset="1" stop-color="#FFC672"/>
</linearGradient>
<linearGradient id="paint9_linear_13_2484" x1="101.033" y1="42.0639" x2="84.5271" y2="41.2961" gradientUnits="userSpaceOnUse">
<stop stop-color="#FDF8CC"/>
<stop offset="0.4375" stop-color="#DFBB60"/>
<stop offset="1" stop-color="#D18137"/>
</linearGradient>
<linearGradient id="paint10_linear_13_2484" x1="92.501" y1="35.6868" x2="83.3082" y2="54.8751" gradientUnits="userSpaceOnUse">
<stop offset="0.165044" stop-color="#FFE255" stop-opacity="0.6"/>
<stop offset="1" stop-color="#FFEB86" stop-opacity="0"/>
</linearGradient>
<linearGradient id="paint11_linear_13_2484" x1="103.806" y1="37.6394" x2="89.6723" y2="49.6154" gradientUnits="userSpaceOnUse">
<stop stop-color="#FFFCE1"/>
<stop offset="0.458333" stop-color="#EBC855"/>
<stop offset="1" stop-color="#EAB415"/>
</linearGradient>
<linearGradient id="paint12_linear_13_2484" x1="54.5393" y1="0" x2="54.5393" y2="90.9404" gradientUnits="userSpaceOnUse">
<stop stop-color="#FCDC3E"/>
<stop offset="1" stop-color="#F7B609"/>
</linearGradient>
<radialGradient id="paint13_radial_13_2484" cx="0" cy="0" r="1" gradientUnits="userSpaceOnUse" gradientTransform="translate(41.8884 32.9061) rotate(77.7026) scale(59.3972 49.8856)">
<stop stop-color="white"/>
<stop offset="1" stop-color="white" stop-opacity="0"/>
</radialGradient>
<linearGradient id="paint14_linear_13_2484" x1="62.9729" y1="77.778" x2="34.0719" y2="20.5369" gradientUnits="userSpaceOnUse">
<stop stop-color="#FFEEB0"/>
<stop offset="1" stop-color="#E98C00"/>
</linearGradient>
<linearGradient id="paint15_linear_13_2484" x1="51.1321" y1="81.0636" x2="46.5759" y2="17.8247" gradientUnits="userSpaceOnUse">
<stop stop-color="#FCDC3E"/>
<stop offset="1" stop-color="#FC9700"/>
</linearGradient>
<linearGradient id="paint16_linear_13_2484" x1="65.503" y1="106.795" x2="50.4334" y2="65.4895" gradientUnits="userSpaceOnUse">
<stop offset="0.0637989" stop-color="white"/>
<stop offset="0.243063" stop-color="white"/>
<stop offset="1" stop-color="white" stop-opacity="0"/>
</linearGradient>
<linearGradient id="paint17_linear_13_2484" x1="54.5392" y1="9.57269" x2="54.5392" y2="81.3678" gradientUnits="userSpaceOnUse">
<stop stop-color="#FFE255"/>
<stop offset="1" stop-color="#FAAA33"/>
</linearGradient>
<radialGradient id="paint18_radial_13_2484" cx="0" cy="0" r="1" gradientUnits="userSpaceOnUse" gradientTransform="translate(40.9989 18.4555) rotate(77.7409) scale(63.7681 60.2849)">
<stop stop-color="#FFE255"/>
<stop offset="1" stop-color="#F0B007"/>
</radialGradient>
<radialGradient id="paint19_angular_13_2484" cx="0" cy="0" r="1" gradientUnits="userSpaceOnUse" gradientTransform="translate(50.2782 43.851) rotate(-146.99) scale(34.478 2.85278)">
<stop stop-color="#FFF9C1"/>
<stop offset="1" stop-color="#FFF7B3" stop-opacity="0"/>
</radialGradient>
<linearGradient id="paint20_linear_13_2484" x1="59.0082" y1="39.6415" x2="57.173" y2="22.826" gradientUnits="userSpaceOnUse">
<stop stop-color="#30F8FF"/>
<stop offset="1" stop-color="#30C0FF"/>
</linearGradient>
<linearGradient id="paint21_linear_13_2484" x1="59.414" y1="42.232" x2="67.7555" y2="37.9206" gradientUnits="userSpaceOnUse">
<stop stop-color="#30C0FF"/>
<stop offset="1" stop-color="#88FBFF"/>
</linearGradient>
<linearGradient id="paint22_linear_13_2484" x1="64.6886" y1="46.118" x2="54.1446" y2="45.8738" gradientUnits="userSpaceOnUse">
<stop stop-color="#B4FAFF"/>
<stop offset="1" stop-color="#ABC3FF" stop-opacity="0"/>
</linearGradient>
<linearGradient id="paint23_linear_13_2484" x1="56.5734" y1="46.9815" x2="72.3215" y2="68.9051" gradientUnits="userSpaceOnUse">
<stop stop-color="#8FE0FC"/>
<stop offset="1" stop-color="#DBF4FC" stop-opacity="0"/>
</linearGradient>
<linearGradient id="paint24_linear_13_2484" x1="41.9662" y1="37.9145" x2="73.1661" y2="54.829" gradientUnits="userSpaceOnUse">
<stop stop-color="#C4F7FB"/>
<stop offset="1" stop-color="white" stop-opacity="0"/>
</linearGradient>
<linearGradient id="paint25_linear_13_2484" x1="44.401" y1="40.9369" x2="43.4845" y2="54.6815" gradientUnits="userSpaceOnUse">
<stop stop-color="#B1F1F5"/>
<stop offset="0.632958" stop-color="#F0FCFF"/>
</linearGradient>
<linearGradient id="paint26_linear_13_2484" x1="59.8201" y1="59.0708" x2="54.5873" y2="43.8056" gradientUnits="userSpaceOnUse">
<stop stop-color="#88FBFF"/>
<stop offset="1" stop-color="#CCE5FC"/>
</linearGradient>
<linearGradient id="paint27_linear_13_2484" x1="47.241" y1="60.366" x2="52.5795" y2="46.8464" gradientUnits="userSpaceOnUse">
<stop stop-color="#88FBFF"/>
<stop offset="1" stop-color="#7FD8F4" stop-opacity="0.97"/>
</linearGradient>
<linearGradient id="paint28_linear_13_2484" x1="52.1102" y1="47.845" x2="25.3531" y2="47.042" gradientUnits="userSpaceOnUse">
<stop stop-color="#9FEAFC"/>
<stop offset="0.756157" stop-color="#D5F0FF" stop-opacity="0"/>
</linearGradient>
<radialGradient id="paint29_radial_13_2484" cx="0" cy="0" r="1" gradientUnits="userSpaceOnUse" gradientTransform="translate(45.2123 61.6614) rotate(-65.6541) scale(25.5908 47.7195)">
<stop stop-color="#30C0FF"/>
<stop offset="1" stop-color="#EAF7FF" stop-opacity="0"/>
</radialGradient>
<linearGradient id="paint30_linear_13_2484" x1="59.0082" y1="39.6415" x2="57.173" y2="22.826" gradientUnits="userSpaceOnUse">
<stop stop-color="#30F8FF"/>
<stop offset="1" stop-color="#30C0FF"/>
</linearGradient>
<linearGradient id="paint31_linear_13_2484" x1="59.414" y1="42.232" x2="67.7555" y2="37.9206" gradientUnits="userSpaceOnUse">
<stop stop-color="#30C0FF"/>
<stop offset="1" stop-color="#88FBFF"/>
</linearGradient>
<linearGradient id="paint32_linear_13_2484" x1="64.6886" y1="46.118" x2="54.1446" y2="45.8738" gradientUnits="userSpaceOnUse">
<stop stop-color="#B4FAFF"/>
<stop offset="1" stop-color="#ABC3FF" stop-opacity="0"/>
</linearGradient>
<linearGradient id="paint33_linear_13_2484" x1="56.5734" y1="46.9815" x2="72.3215" y2="68.9051" gradientUnits="userSpaceOnUse">
<stop stop-color="#8FE0FC"/>
<stop offset="1" stop-color="#DBF4FC" stop-opacity="0"/>
</linearGradient>
<linearGradient id="paint34_linear_13_2484" x1="41.9662" y1="37.9145" x2="73.1661" y2="54.829" gradientUnits="userSpaceOnUse">
<stop stop-color="#C4F7FB"/>
<stop offset="1" stop-color="white" stop-opacity="0"/>
</linearGradient>
<linearGradient id="paint35_linear_13_2484" x1="44.401" y1="40.9369" x2="43.4845" y2="54.6815" gradientUnits="userSpaceOnUse">
<stop stop-color="#B1F1F5"/>
<stop offset="0.632958" stop-color="#F0FCFF"/>
</linearGradient>
<linearGradient id="paint36_linear_13_2484" x1="59.8201" y1="59.0708" x2="54.5873" y2="43.8056" gradientUnits="userSpaceOnUse">
<stop stop-color="#88FBFF"/>
<stop offset="1" stop-color="#CCE5FC"/>
</linearGradient>
<linearGradient id="paint37_linear_13_2484" x1="47.241" y1="60.366" x2="52.5795" y2="46.8464" gradientUnits="userSpaceOnUse">
<stop stop-color="#88FBFF"/>
<stop offset="1" stop-color="#7FD8F4" stop-opacity="0.97"/>
</linearGradient>
<linearGradient id="paint38_linear_13_2484" x1="52.1102" y1="47.845" x2="25.3531" y2="47.042" gradientUnits="userSpaceOnUse">
<stop stop-color="#9FEAFC"/>
<stop offset="0.756157" stop-color="#D5F0FF" stop-opacity="0"/>
</linearGradient>
<radialGradient id="paint39_radial_13_2484" cx="0" cy="0" r="1" gradientUnits="userSpaceOnUse" gradientTransform="translate(45.2123 61.6614) rotate(-65.6541) scale(25.5908 47.7195)">
<stop stop-color="#30C0FF"/>
<stop offset="1" stop-color="#EAF7FF" stop-opacity="0"/>
</radialGradient>
</defs>
</svg>
