<svg width="20" height="20" viewBox="0 0 20 20" fill="none" xmlns="http://www.w3.org/2000/svg">
<path d="M8.60848 13.8274H3.35788" stroke="#002397" stroke-width="1.5" stroke-linecap="round" stroke-linejoin="round"/>
<path d="M10.9504 5.75032H16.201" stroke="#002397" stroke-width="1.5" stroke-linecap="round" stroke-linejoin="round"/>
<path fill-rule="evenodd" clip-rule="evenodd" d="M7.27192 5.70521C7.27192 4.6255 6.39012 3.75 5.30263 3.75C4.21514 3.75 3.33334 4.6255 3.33334 5.70521C3.33334 6.78492 4.21514 7.66042 5.30263 7.66042C6.39012 7.66042 7.27192 6.78492 7.27192 5.70521Z" stroke="#002397" stroke-width="1.5" stroke-linecap="round" stroke-linejoin="round"/>
<path fill-rule="evenodd" clip-rule="evenodd" d="M16.6667 13.7948C16.6667 12.7151 15.7855 11.8396 14.6981 11.8396C13.6099 11.8396 12.7281 12.7151 12.7281 13.7948C12.7281 14.8745 13.6099 15.75 14.6981 15.75C15.7855 15.75 16.6667 14.8745 16.6667 13.7948Z" stroke="#002397" stroke-width="1.5" stroke-linecap="round" stroke-linejoin="round"/>
</svg>
