<svg width="32" height="39" viewBox="0 0 32 39" fill="none" xmlns="http://www.w3.org/2000/svg">
<g opacity="0.3">
<path opacity="0.3" d="M22.3472 7.8784C21.4724 7.87797 20.6334 7.53025 20.0148 6.91162C19.3962 6.29299 19.0484 5.45407 19.048 4.5792V0H4.30563C3.74007 -3.90496e-08 3.18006 0.111414 2.65758 0.327891C2.13509 0.544367 1.66034 0.861659 1.26051 1.26164C0.860675 1.66162 0.543588 2.13646 0.327305 2.65902C0.111022 3.18159 -0.000209868 3.74165 2.97262e-07 4.30721V30.2608C-0.000209868 30.8264 0.111022 31.3864 0.327305 31.909C0.543588 32.4315 0.860675 32.9064 1.26051 33.3063C1.66034 33.7063 2.13509 34.0236 2.65758 34.2401C3.18006 34.4566 3.74007 34.568 4.30563 34.568H22.0016C22.5672 34.568 23.1272 34.4566 23.6496 34.2401C24.1721 34.0236 24.6468 33.7063 25.0467 33.3063C25.4465 32.9064 25.7636 32.4315 25.9799 31.909C26.1962 31.3864 26.3074 30.8264 26.3072 30.2608V7.88L22.3472 7.8784Z" fill="#00C650"/>
</g>
<path d="M26.3072 7.8784H22.3472C21.4724 7.87797 20.6334 7.53025 20.0148 6.91162C19.3962 6.29299 19.0484 5.45407 19.048 4.5792V0L26.3072 7.8784Z" fill="#00C650"/>
<path d="M29.4304 27.296H9.42403C8.00487 27.296 6.85442 28.4465 6.85442 29.8656V35.8304C6.85442 37.2495 8.00487 38.4 9.42403 38.4H29.4304C30.8496 38.4 32 37.2495 32 35.8304V29.8656C32 28.4465 30.8496 27.296 29.4304 27.296Z" fill="#00C650"/>
<path d="M13.4752 34.1392V35.304H12.2704V34.1392H13.4752Z" fill="white"/>
<path d="M17.0512 30.4928V33.7792C17.0512 34.2837 16.9141 34.6715 16.64 34.9424C16.487 35.0835 16.3071 35.1923 16.1111 35.2624C15.9151 35.3325 15.707 35.3624 15.4992 35.3504C15.2716 35.3626 15.0439 35.3296 14.8291 35.2532C14.6143 35.1769 14.4168 35.0587 14.248 34.9056C13.9397 34.608 13.7851 34.1813 13.784 33.6256H14.9344C14.9344 34.0752 15.1056 34.2992 15.4448 34.2992C15.7408 34.2992 15.888 34.1264 15.888 33.7824V30.496L17.0512 30.4928Z" fill="white"/>
<path d="M18.9808 33.616V35.304H17.8176V30.4928H19.7024C20.2731 30.4928 20.7083 30.6341 21.008 30.9168C21.1597 31.0654 21.2782 31.2445 21.3557 31.4422C21.4332 31.64 21.4679 31.8519 21.4576 32.064C21.462 32.3436 21.393 32.6194 21.2576 32.864C21.1183 33.1025 20.9111 33.2941 20.6624 33.4144C20.3629 33.5566 20.0339 33.6257 19.7024 33.616H18.9808ZM20.2736 32.064C20.2736 31.6373 20.04 31.424 19.5728 31.424H18.9808V32.6768H19.5728C20.04 32.6811 20.2736 32.4768 20.2736 32.064Z" fill="white"/>
<path d="M25.7728 30.88C26.1602 31.1713 26.4208 31.6003 26.5008 32.0784H25.2688C25.1854 31.911 25.0539 31.7722 24.8912 31.68C24.708 31.5711 24.4979 31.5157 24.2848 31.52C24.1194 31.5133 23.9545 31.543 23.8018 31.6072C23.6492 31.6713 23.5126 31.7683 23.4016 31.8912C23.1669 32.1711 23.0474 32.5297 23.0672 32.8944C23.0672 33.352 23.184 33.7035 23.4176 33.9488C23.549 34.0762 23.7055 34.1747 23.8772 34.2381C24.0488 34.3015 24.2318 34.3283 24.4144 34.3168C24.6755 34.3215 24.931 34.2412 25.1424 34.088C25.3583 33.9268 25.5143 33.6982 25.5856 33.4384H24.1152V32.6016H26.5584V33.752C26.4651 34.0384 26.3173 34.304 26.1232 34.5344C25.913 34.7826 25.6515 34.9824 25.3568 35.12C25.0236 35.274 24.6598 35.3505 24.2928 35.344C23.8464 35.3557 23.4048 35.2492 23.0128 35.0352C22.6542 34.8335 22.3623 34.5316 22.1728 34.1664C21.9692 33.771 21.8675 33.3311 21.8768 32.8864C21.8688 32.4445 21.9705 32.0074 22.1728 31.6144C22.362 31.25 22.6526 30.9483 23.0096 30.7456C23.3959 30.5333 23.8313 30.4268 24.272 30.4368C24.8076 30.4134 25.3358 30.5694 25.7728 30.88Z" fill="white"/>
<path d="M16.688 23.4256H9.62082C8.92897 23.4248 8.2657 23.1495 7.77648 22.6603C7.28727 22.1711 7.01206 21.5078 7.01121 20.816V13.7488C7.01206 13.057 7.28727 12.3937 7.77648 11.9045C8.2657 11.4153 8.92897 11.14 9.62082 11.1392H16.688C17.3797 11.14 18.0428 11.4153 18.5318 11.9046C19.0207 12.3938 19.2956 13.0571 19.296 13.7488V20.816C19.2956 21.5077 19.0207 22.171 18.5318 22.6602C18.0428 23.1495 17.3797 23.4248 16.688 23.4256ZM9.62082 12.2928C9.2348 12.2932 8.86468 12.4468 8.59172 12.7197C8.31876 12.9927 8.16523 13.3628 8.16481 13.7488V20.816C8.16523 21.202 8.31876 21.5721 8.59172 21.8451C8.86468 22.118 9.2348 22.2716 9.62082 22.272H16.688C17.0739 22.2716 17.4438 22.118 17.7165 21.845C17.9892 21.572 18.1424 21.2019 18.1424 20.816V13.7488C18.1424 13.3629 17.9892 12.9928 17.7165 12.7198C17.4438 12.4468 17.0739 12.2932 16.688 12.2928H9.62082Z" fill="#00C650"/>
<path d="M18.72 19.472V20.816C18.7196 21.3548 18.5054 21.8714 18.1244 22.2524C17.7434 22.6333 17.2268 22.8476 16.688 22.848H9.62082C9.0819 22.848 8.56506 22.6339 8.18399 22.2528C7.80291 21.8718 7.58883 21.3549 7.58883 20.816V18.56C8.72003 18.3168 10.4432 18.24 12.5344 19.0752L13.8304 17.84L14.7136 20.08C14.7136 20.08 14.9504 19.256 15.7152 19.3728C16.48 19.4896 17.7184 19.904 18.248 19.5504C18.3907 19.4681 18.5584 19.4402 18.72 19.472Z" fill="#00C650"/>
<path d="M16.2448 15.192C16.6787 15.192 17.0304 14.8403 17.0304 14.4064C17.0304 13.9725 16.6787 13.6208 16.2448 13.6208C15.8109 13.6208 15.4592 13.9725 15.4592 14.4064C15.4592 14.8403 15.8109 15.192 16.2448 15.192Z" fill="#00C650"/>
</svg>
