<svg width="42" height="32" viewBox="0 0 42 32" fill="none" xmlns="http://www.w3.org/2000/svg">
<g clip-path="url(#clip0_7_2776)">
<path d="M7.48385 31.841V29.723C7.48385 28.9109 6.98954 28.3816 6.14226 28.3816C5.7187 28.3816 5.25977 28.5228 4.94202 28.9817C4.69502 28.5934 4.34206 28.3816 3.81253 28.3816C3.45941 28.3816 3.1066 28.4874 2.82407 28.8757V28.4522H2.08276V31.841H2.82407V29.97C2.82407 29.37 3.14182 29.0875 3.63613 29.0875C4.13012 29.0875 4.37744 29.4053 4.37744 29.97V31.841H5.11874V29.97C5.11874 29.37 5.47155 29.0875 5.93048 29.0875C6.42479 29.0875 6.67179 29.4053 6.67179 29.97V31.841H7.48385ZM18.4621 28.4522H17.262V27.4285H16.5207V28.4522H15.85V29.1227H16.5206V30.6761C16.5206 31.4528 16.8383 31.9116 17.6856 31.9116C18.0033 31.9116 18.3561 31.8057 18.6034 31.6646L18.3915 31.0291C18.1797 31.1702 17.9327 31.2056 17.7562 31.2056C17.4032 31.2056 17.262 30.9938 17.262 30.6407V29.1227H18.4621V28.4522ZM24.7457 28.3814C24.3221 28.3814 24.0397 28.5934 23.8632 28.8757V28.4522H23.1219V31.841H23.8632V29.9348C23.8632 29.37 24.1102 29.0523 24.5691 29.0523C24.7103 29.0523 24.8869 29.0877 25.0281 29.1229L25.2398 28.417C25.0986 28.3816 24.8869 28.3816 24.7457 28.3816V28.3814ZM15.2499 28.7345C14.8968 28.4874 14.4026 28.3816 13.8731 28.3816C13.026 28.3816 12.4612 28.8051 12.4612 29.4759C12.4612 30.0408 12.8848 30.3583 13.6261 30.4643L13.979 30.4997C14.3674 30.5701 14.5792 30.6761 14.5792 30.8527C14.5792 31.0997 14.2968 31.2762 13.8025 31.2762C13.3083 31.2762 12.92 31.0997 12.6728 30.9233L12.3199 31.488C12.7082 31.7704 13.2377 31.9116 13.7671 31.9116C14.7556 31.9116 15.3205 31.4528 15.3205 30.8173C15.3205 30.2172 14.8615 29.8994 14.1554 29.7936L13.8025 29.7582C13.4847 29.7228 13.2377 29.6524 13.2377 29.4406C13.2377 29.1935 13.4847 29.0523 13.8731 29.0523C14.2968 29.0523 14.7204 29.2287 14.9321 29.3347L15.2499 28.7345ZM34.9476 28.3816C34.5238 28.3816 34.2415 28.5934 34.0649 28.8757V28.4522H33.3236V31.841H34.0649V29.9348C34.0649 29.37 34.3121 29.0523 34.7708 29.0523C34.9122 29.0523 35.0888 29.0877 35.2299 29.1229L35.4417 28.417C35.3005 28.3816 35.0888 28.3816 34.9476 28.3816ZM25.487 30.1466C25.487 31.1702 26.1929 31.9116 27.2873 31.9116C27.7815 31.9116 28.1345 31.8057 28.4874 31.5234L28.1345 30.9233C27.8521 31.135 27.5697 31.2408 27.252 31.2408C26.6518 31.2408 26.2283 30.8173 26.2283 30.1466C26.2283 29.5112 26.6518 29.0875 27.252 29.0523C27.5697 29.0523 27.8521 29.1581 28.1345 29.37L28.4874 28.7699C28.1345 28.4874 27.7815 28.3816 27.2873 28.3816C26.1929 28.3816 25.487 29.1229 25.487 30.1466ZM32.3353 30.1466V28.4522H31.594V28.8757C31.3468 28.5581 30.9939 28.3816 30.5349 28.3816C29.5819 28.3816 28.8406 29.1229 28.8406 30.1466C28.8406 31.1702 29.5819 31.9116 30.5349 31.9116C31.0291 31.9116 31.3822 31.7352 31.594 31.4174V31.841H32.3353V30.1466ZM29.6171 30.1466C29.6171 29.5464 30.0054 29.0523 30.6408 29.0523C31.2409 29.0523 31.6646 29.5112 31.6646 30.1466C31.6646 30.7467 31.2409 31.2408 30.6408 31.2408C30.0054 31.2055 29.6171 30.7467 29.6171 30.1466ZM20.7568 28.3816C19.7683 28.3816 19.0622 29.0875 19.0622 30.1466C19.0622 31.2056 19.7682 31.9116 20.792 31.9116C21.2861 31.9116 21.7805 31.7704 22.1688 31.4528L21.8157 30.9233C21.5333 31.135 21.1803 31.2762 20.8274 31.2762C20.3684 31.2762 19.9095 31.0644 19.8035 30.4642H22.31V30.1819C22.3454 29.0875 21.7099 28.3816 20.7566 28.3816H20.7568ZM20.7568 29.0169C21.2155 29.0169 21.5335 29.2995 21.6039 29.829H19.8389C19.9095 29.37 20.2272 29.0169 20.7568 29.0169ZM39.1483 30.1466V27.1107H38.4069V28.8757C38.1598 28.5581 37.8068 28.3816 37.3479 28.3816C36.3948 28.3816 35.6535 29.1229 35.6535 30.1466C35.6535 31.1702 36.3948 31.9116 37.3479 31.9116C37.8422 31.9116 38.1952 31.7352 38.4069 31.4174V31.841H39.1483V30.1466ZM36.4302 30.1466C36.4302 29.5464 36.8184 29.0523 37.4539 29.0523C38.054 29.0523 38.4775 29.5112 38.4775 30.1466C38.4775 30.7467 38.054 31.2408 37.4539 31.2408C36.8184 31.2055 36.4302 30.7467 36.4302 30.1466ZM11.6492 30.1466V28.4522H10.9078V28.8757C10.6607 28.5581 10.3077 28.3816 9.84879 28.3816C8.89571 28.3816 8.1544 29.1229 8.1544 30.1466C8.1544 31.1702 8.89571 31.9116 9.84879 31.9116C10.3431 31.9116 10.6961 31.7352 10.9078 31.4174V31.841H11.6492V30.1466ZM8.89571 30.1466C8.89571 29.5464 9.28405 29.0523 9.91939 29.0523C10.5195 29.0523 10.9432 29.5112 10.9432 30.1466C10.9432 30.7467 10.5195 31.2408 9.91939 31.2408C9.28405 31.2055 8.89571 30.7467 8.89571 30.1466Z" fill="black"/>
<path d="M15.0027 2.71808H26.1223V22.6981H15.0027V2.71808Z" fill="#FF5F00"/>
<path d="M15.7088 12.7082C15.7088 8.64868 17.615 5.04796 20.5448 2.71807C18.3916 1.02368 15.6736 0 12.7083 0C5.6833 0 0 5.6833 0 12.7082C0 19.7329 5.6833 25.4164 12.7082 25.4164C15.6734 25.4164 18.3915 24.3927 20.5448 22.6981C17.615 20.4036 15.7088 16.7677 15.7088 12.7082Z" fill="#EB001B"/>
<path d="M41.1249 12.7082C41.1249 19.7329 35.4416 25.4164 28.4167 25.4164C25.4515 25.4164 22.7334 24.3927 20.5801 22.6981C23.5453 20.3684 25.4163 16.7677 25.4163 12.7082C25.4163 8.64868 23.5099 5.04796 20.5801 2.71807C22.7332 1.02368 25.4515 0 28.4167 0C35.4416 0 41.125 5.71867 41.125 12.7082H41.1249Z" fill="#F79E1B"/>
</g>
<defs>
<clipPath id="clip0_7_2776">
<rect width="41.1658" height="32" fill="white"/>
</clipPath>
</defs>
</svg>
