<svg width="28" height="28" viewBox="0 0 28 28" fill="none" xmlns="http://www.w3.org/2000/svg">
<path fill-rule="evenodd" clip-rule="evenodd" d="M2.33331 14.0068C2.33331 7.56729 7.5698 2.33333 14 2.33333C20.4302 2.33333 25.6666 7.56729 25.6666 14.0068C25.6666 20.4327 20.4302 25.6667 14 25.6667C7.5698 25.6667 2.33331 20.4327 2.33331 14.0068ZM18.2793 15.1875C18.4031 15.0637 18.5608 14.8723 18.5946 14.8273C18.7748 14.5909 18.8648 14.2983 18.8648 14.0068C18.8648 13.6792 18.7635 13.3753 18.5721 13.1277C18.5564 13.112 18.5256 13.0786 18.4856 13.035C18.4107 12.9534 18.3032 12.8364 18.2004 12.7337C17.277 11.7432 14.8671 10.1224 13.6058 9.62711C13.4144 9.54945 12.9302 9.37948 12.6712 9.36823C12.4234 9.36823 12.1869 9.42451 11.9617 9.53706C11.6802 9.69465 11.4549 9.94227 11.3311 10.2349C11.2522 10.4375 11.1284 11.0453 11.1284 11.0566C11.0045 11.7207 10.9369 12.8013 10.9369 13.9944C10.9369 15.1323 11.0045 16.1667 11.1058 16.8421C11.1086 16.8449 11.1183 16.8932 11.1334 16.9682C11.1791 17.1964 11.2744 17.6716 11.3761 17.8664C11.6239 18.3391 12.1081 18.6318 12.6261 18.6318H12.6712C13.009 18.6205 13.7184 18.3279 13.7184 18.3166C14.9121 17.8214 17.2657 16.2793 18.2117 15.255L18.2793 15.1875Z" fill="white"/>
</svg>
