<svg width="32" height="39" viewBox="0 0 32 39" fill="none" xmlns="http://www.w3.org/2000/svg">
<g opacity="0.3">
<path opacity="0.3" d="M22.3472 7.8784C21.4725 7.87755 20.6338 7.52969 20.0152 6.91115C19.3967 6.29261 19.0488 5.45394 19.048 4.5792V0H4.30559C3.16368 0 2.06854 0.453622 1.26108 1.26108C0.453627 2.06854 0 3.16368 0 4.3056V30.2608C0.00169574 31.4016 0.456067 32.4951 1.26334 33.3012C2.07061 34.1072 3.16479 34.56 4.30559 34.56H22.0032C23.1443 34.56 24.2387 34.107 25.046 33.3006C25.8533 32.4942 26.3075 31.4003 26.3088 30.2592V7.8784H22.3472Z" fill="#FF3E4C"/>
</g>
<path d="M26.3088 7.8784H22.3472C21.4724 7.87755 20.6338 7.52969 20.0152 6.91115C19.3967 6.29261 19.0488 5.45394 19.048 4.5792V0L26.3088 7.8784Z" fill="#FF3E4C"/>
<path d="M29.4304 27.296H9.424C8.00485 27.296 6.8544 28.4464 6.8544 29.8656V35.8304C6.8544 37.2495 8.00485 38.4 9.424 38.4H29.4304C30.8496 38.4 32 37.2495 32 35.8304V29.8656C32 28.4464 30.8496 27.296 29.4304 27.296Z" fill="#FF3E4C"/>
<path d="M12.5856 34.1392V35.3024H11.3808V34.1392H12.5856Z" fill="white"/>
<path d="M18.6016 30.5248V35.3024H17.4384V32.32L16.4032 35.3072H15.3968L14.3552 32.3136V35.3072H13.1888V30.5296H14.6112L15.9104 33.8576L17.1904 30.5296L18.6016 30.5248Z" fill="white"/>
<path d="M20.568 33.6144V35.3024H19.4048V30.4912H21.2896C21.8608 30.4912 22.2976 30.6336 22.5968 30.9168C22.7481 31.0653 22.8662 31.2442 22.9434 31.4417C23.0206 31.6391 23.0552 31.8507 23.0448 32.0624C23.0505 32.3421 22.9815 32.6183 22.8448 32.8624C22.7051 33.101 22.498 33.2931 22.2496 33.4144C21.9497 33.5553 21.6208 33.6238 21.2896 33.6144H20.568ZM21.8608 32.0624C21.8608 31.6421 21.6272 31.4315 21.16 31.4304H20.568V32.6832H21.16C21.6272 32.6832 21.8608 32.4763 21.8608 32.0624Z" fill="white"/>
<path d="M26.1344 30.4544C26.3605 30.557 26.5514 30.724 26.6832 30.9344C26.8089 31.1405 26.8738 31.3779 26.8704 31.6192C26.883 31.8918 26.7973 32.1598 26.6288 32.3744C26.4752 32.5603 26.2621 32.6875 26.0256 32.7344V32.7696C26.6485 32.968 26.9595 33.3558 26.9584 33.9328C26.9629 34.1914 26.8971 34.4463 26.768 34.6704C26.6369 34.8897 26.4437 35.0651 26.2128 35.1744C25.9394 35.3011 25.6404 35.363 25.3392 35.3552C24.7856 35.3552 24.3456 35.2192 24.0224 34.9472C23.6992 34.6752 23.5216 34.2592 23.4944 33.7008H24.6304C24.629 33.8844 24.6918 34.0627 24.808 34.2048C24.8694 34.269 24.9443 34.3189 25.0273 34.3507C25.1103 34.3825 25.1994 34.3955 25.288 34.3888C25.361 34.3928 25.4339 34.3814 25.5023 34.3555C25.5706 34.3296 25.6328 34.2897 25.6848 34.2384C25.7341 34.1871 25.7725 34.1263 25.7978 34.0598C25.8231 33.9933 25.8347 33.9223 25.832 33.8512C25.832 33.4555 25.5461 33.2582 24.9744 33.2592H24.7568V32.3136H24.968C25.48 32.3211 25.736 32.1371 25.736 31.7616C25.7407 31.693 25.7314 31.624 25.7085 31.5591C25.6857 31.4942 25.6499 31.4346 25.6032 31.384C25.5559 31.3387 25.4999 31.3036 25.4385 31.2807C25.3772 31.2579 25.3118 31.2479 25.2464 31.2512C25.174 31.2469 25.1015 31.259 25.0344 31.2867C24.9673 31.3145 24.9074 31.357 24.8592 31.4112C24.7586 31.5386 24.7024 31.6954 24.6992 31.8576H23.5616C23.5589 31.6402 23.5999 31.4244 23.6824 31.2232C23.7649 31.022 23.887 30.8394 24.0416 30.6864C24.336 30.4144 24.7488 30.2784 25.28 30.2784C25.5744 30.2721 25.8664 30.3323 26.1344 30.4544Z" fill="white"/>
<path d="M19.2368 21.1072H17.4848V14.0256C17.4848 13.7884 17.3906 13.5609 17.2228 13.3932C17.0551 13.2254 16.8276 13.1312 16.5904 13.1312H12.1104C11.9929 13.1312 11.8766 13.1543 11.7681 13.1993C11.6596 13.2442 11.561 13.3101 11.478 13.3932C11.3949 13.4762 11.329 13.5748 11.2841 13.6833C11.2391 13.7919 11.216 13.9082 11.216 14.0256V21.1072H9.45599V13.4272C9.45599 13.1577 9.50911 12.8908 9.61229 12.6419C9.71547 12.3929 9.8667 12.1667 10.0573 11.9762C10.248 11.7857 10.4743 11.6347 10.7233 11.5317C10.9724 11.4287 11.2393 11.3758 11.5088 11.376H17.1888C17.7328 11.376 18.2545 11.5921 18.6392 11.9768C19.0239 12.3615 19.24 12.8832 19.24 13.4272L19.2368 21.1072Z" fill="#FF3E4C"/>
<path d="M17.16 23.184C18.307 23.184 19.2368 22.2542 19.2368 21.1072C19.2368 19.9602 18.307 19.0304 17.16 19.0304C16.013 19.0304 15.0832 19.9602 15.0832 21.1072C15.0832 22.2542 16.013 23.184 17.16 23.184Z" fill="#FF3E4C"/>
<path d="M9.14881 23.184C10.2958 23.184 11.2256 22.2542 11.2256 21.1072C11.2256 19.9602 10.2958 19.0304 9.14881 19.0304C8.00182 19.0304 7.07201 19.9602 7.07201 21.1072C7.07201 22.2542 8.00182 23.184 9.14881 23.184Z" fill="#FF3E4C"/>
</svg>
