<svg width="32" height="39" viewBox="0 0 32 39" fill="none" xmlns="http://www.w3.org/2000/svg">
<g opacity="0.3">
<path opacity="0.3" d="M22.3472 7.88C21.4724 7.87915 20.6338 7.53127 20.0152 6.91273C19.3967 6.2942 19.0489 5.45552 19.048 4.58078V0H4.30559C3.16367 0 2.06855 0.453637 1.26109 1.26109C0.453637 2.06855 0 3.16367 0 4.30559V30.2608C0 31.4027 0.453637 32.4979 1.26109 33.3053C2.06855 34.1128 3.16367 34.5664 4.30559 34.5664H22.0016C22.5672 34.5666 23.1272 34.4554 23.6498 34.2391C24.1723 34.0228 24.6472 33.7057 25.0471 33.3059C25.4471 32.9061 25.7644 32.4314 25.9809 31.9089C26.1974 31.3864 26.3088 30.8263 26.3088 30.2608V7.88H22.3472Z" fill="#FF3E4C"/>
</g>
<path d="M26.3088 7.88H22.3472C21.4724 7.87915 20.6338 7.53127 20.0152 6.91273C19.3967 6.2942 19.0489 5.45552 19.048 4.58078V0L26.3088 7.88Z" fill="#FF3E4C"/>
<path d="M29.4304 27.2976H9.42399C8.00484 27.2976 6.85442 28.448 6.85442 29.8672V35.832C6.85442 37.2511 8.00484 38.4016 9.42399 38.4016H29.4304C30.8495 38.4016 32 37.2511 32 35.832V29.8672C32 28.448 30.8495 27.2976 29.4304 27.2976Z" fill="#FF3E4C"/>
<path d="M13.888 34.1408V35.304H12.6832V34.1408H13.888Z" fill="white"/>
<path d="M15.6576 33.616V35.304H14.4944V30.4928H16.3792C16.951 30.4928 17.3861 30.6347 17.6848 30.9184C17.8364 31.0671 17.9549 31.2462 18.0323 31.4439C18.1098 31.6416 18.1446 31.8535 18.1344 32.0656C18.1395 32.3452 18.0705 32.6212 17.9344 32.8656C17.7945 33.1046 17.5868 33.2968 17.3376 33.4176C17.0381 33.5598 16.709 33.6284 16.3776 33.6176L15.6576 33.616ZM16.9504 32.0656C16.9504 31.6389 16.7168 31.4256 16.2496 31.4256H15.6576V32.6784H16.2496C16.7168 32.6827 16.9504 32.4784 16.9504 32.0656Z" fill="white"/>
<path d="M19.8704 33.616V35.304H18.7056V30.4928H20.5904C21.1632 30.4928 21.5989 30.6347 21.8976 30.9184C22.0492 31.0671 22.1676 31.2462 22.2451 31.4439C22.3226 31.6416 22.3574 31.8535 22.3472 32.0656C22.3524 32.3455 22.2828 32.6216 22.1456 32.8656C22.0067 33.1049 21.7994 33.2972 21.5504 33.4176C21.2509 33.5598 20.9218 33.6284 20.5904 33.6176L19.8704 33.616ZM21.1632 32.0656C21.1632 31.6389 20.9296 31.4256 20.4624 31.4256H19.8704V32.6784H20.4624C20.9296 32.6827 21.1632 32.4784 21.1632 32.0656Z" fill="white"/>
<path d="M26.376 30.4928V31.4192H25.0688V35.304H23.8992V31.4192H22.6048V30.4928H26.376Z" fill="white"/>
<path d="M11.9504 13.3968H4.96C4.80115 13.3968 4.64877 13.3338 4.53629 13.2216C4.42381 13.1095 4.36042 12.9572 4.36 12.7984C4.36 12.6393 4.42322 12.4867 4.53574 12.3741C4.64826 12.2616 4.80087 12.1984 4.96 12.1984H11.944C12.1031 12.1984 12.2558 12.2616 12.3683 12.3741C12.4808 12.4867 12.544 12.6393 12.544 12.7984C12.5436 12.9561 12.4811 13.1074 12.37 13.2194C12.2589 13.3314 12.1081 13.3951 11.9504 13.3968Z" fill="#FF3E4C"/>
<path d="M11.9504 16.976H4.96C4.80115 16.976 4.64877 16.913 4.53629 16.8008C4.42381 16.6886 4.36042 16.5365 4.36 16.3776C4.36 16.2185 4.42322 16.0658 4.53574 15.9533C4.64826 15.8408 4.80087 15.7776 4.96 15.7776H11.944C12.1031 15.7776 12.2558 15.8408 12.3683 15.9533C12.4808 16.0658 12.544 16.2185 12.544 16.3776C12.5436 16.5354 12.4811 16.6866 12.37 16.7986C12.2589 16.9106 12.1081 16.9743 11.9504 16.976Z" fill="#FF3E4C"/>
<path d="M11.9504 20.5552H4.96C4.80087 20.5552 4.64826 20.492 4.53574 20.3795C4.42322 20.2669 4.36 20.1143 4.36 19.9552C4.36127 19.7969 4.42504 19.6455 4.53742 19.534C4.64981 19.4225 4.8017 19.36 4.96 19.36H11.944C12.1028 19.36 12.2552 19.423 12.3677 19.5352C12.4802 19.6473 12.5436 19.7995 12.544 19.9584C12.5432 20.1159 12.4805 20.2667 12.3694 20.3784C12.2584 20.49 12.1079 20.5535 11.9504 20.5552Z" fill="#FF3E4C"/>
<path d="M11.9504 24.1344H4.96C4.80087 24.1344 4.64826 24.0712 4.53574 23.9587C4.42322 23.8462 4.36 23.6935 4.36 23.5344C4.36042 23.3756 4.42381 23.2234 4.53629 23.1112C4.64877 22.999 4.80115 22.936 4.96 22.936H11.944C12.1028 22.936 12.2552 22.999 12.3677 23.1112C12.4802 23.2234 12.5436 23.3756 12.544 23.5344C12.544 23.6924 12.4817 23.8441 12.3705 23.9564C12.2594 24.0688 12.1084 24.1327 11.9504 24.1344Z" fill="#FF3E4C"/>
<path d="M18.76 18.88V13.5616C17.4643 13.63 16.2442 14.1928 15.3512 15.1341C14.4582 16.0754 13.9602 17.3233 13.96 18.6208C13.9598 19.2861 14.0907 19.9449 14.3452 20.5596C14.5997 21.1743 14.9728 21.7328 15.4432 22.2032C15.9136 22.6736 16.4722 23.0468 17.0868 23.3012C17.7015 23.5557 18.3603 23.6866 19.0256 23.6864C20.323 23.6865 21.571 23.1887 22.5121 22.2955C23.4532 21.4024 24.0156 20.1821 24.0832 18.8864L18.76 18.88Z" fill="#FF3E4C"/>
<path d="M19.7296 13.1568V17.9568H24.5296C24.4655 16.7045 23.9392 15.5205 23.0525 14.6339C22.1659 13.7472 20.9819 13.2209 19.7296 13.1568Z" fill="#FF3E4C"/>
</svg>
