<svg width="32" height="39" viewBox="0 0 32 39" fill="none" xmlns="http://www.w3.org/2000/svg">
<g opacity="0.3">
<path opacity="0.3" d="M22.3472 7.88C21.4725 7.87915 20.6338 7.53127 20.0153 6.91273C19.3967 6.2942 19.0488 5.45552 19.048 4.58078V0H4.3056C3.16368 0 2.06854 0.453637 1.26108 1.26109C0.453625 2.06855 0 3.16367 0 4.30559V30.2608C0.00169574 31.4016 0.456069 32.4951 1.26334 33.3012C2.07062 34.1072 3.16479 34.56 4.3056 34.56H22.0016C22.5672 34.5602 23.1272 34.449 23.6498 34.2327C24.1723 34.0165 24.6472 33.6993 25.0472 33.2995C25.4471 32.8997 25.7644 32.4249 25.9809 31.9025C26.1974 31.38 26.3088 30.82 26.3088 30.2544V7.87359L22.3472 7.88Z" fill="#00C650"/>
</g>
<path d="M26.3087 7.88H22.3471C21.4723 7.87915 20.6336 7.53127 20.0151 6.91273C19.3966 6.2942 19.0487 5.45552 19.0479 4.58078V0L26.3087 7.88Z" fill="#00C650"/>
<path d="M29.4305 27.2976H9.42409C8.00494 27.2976 6.85449 28.448 6.85449 29.8672V35.832C6.85449 37.2512 8.00494 38.4016 9.42409 38.4016H29.4305C30.8496 38.4016 32.0001 37.2512 32.0001 35.832V29.8672C32.0001 28.448 30.8496 27.2976 29.4305 27.2976Z" fill="#00C650"/>
<path d="M12.8786 34.0992V35.2592H11.6802V34.0992H12.8786Z" fill="white"/>
<path d="M17.1839 30.9024C17.5888 31.2301 17.8639 31.6912 17.9599 32.2032H16.7343C16.6525 31.9908 16.508 31.8082 16.3199 31.68C16.122 31.5502 15.8892 31.4838 15.6527 31.4896C15.4967 31.4849 15.3417 31.516 15.1997 31.5807C15.0577 31.6453 14.9324 31.7417 14.8335 31.8624C14.6136 32.1467 14.5029 32.5003 14.5215 32.8592C14.5028 33.2167 14.6135 33.5688 14.8335 33.8512C14.9328 33.9713 15.0582 34.067 15.2002 34.131C15.3422 34.1951 15.497 34.2258 15.6527 34.2208C15.8892 34.2266 16.122 34.1602 16.3199 34.0304C16.5079 33.9048 16.6535 33.7252 16.7375 33.5152H17.9631C17.865 34.0255 17.5903 34.485 17.1871 34.8128C16.7544 35.1454 16.2187 35.3153 15.6735 35.2928C15.2441 35.3022 14.8201 35.1955 14.4463 34.984C14.096 34.7815 13.8125 34.4812 13.6303 34.12C13.4331 33.7277 13.3342 33.2934 13.3423 32.8544C13.334 32.4149 13.4329 31.98 13.6303 31.5872C13.8125 31.226 14.096 30.9257 14.4463 30.7232C14.8201 30.5117 15.2441 30.405 15.6735 30.4144C16.2185 30.3957 16.7529 30.5683 17.1839 30.9024Z" fill="white"/>
<path d="M21.8606 34.608C21.7227 34.8281 21.5252 35.0045 21.291 35.1168C21.0059 35.2502 20.6936 35.3149 20.379 35.3056C19.9052 35.3248 19.4384 35.187 19.051 34.9136C18.8799 34.785 18.7399 34.6196 18.6413 34.4296C18.5427 34.2396 18.4881 34.0299 18.4814 33.816H19.715C19.7235 33.9772 19.7927 34.1292 19.9086 34.2416C20.0232 34.3489 20.1756 34.4064 20.3326 34.4016C20.4612 34.4081 20.5874 34.3646 20.6846 34.28C20.7267 34.2383 20.7599 34.1884 20.7819 34.1333C20.8039 34.0783 20.8143 34.0193 20.8126 33.96C20.8141 33.904 20.8044 33.8482 20.784 33.796C20.7637 33.7438 20.7332 33.6962 20.6942 33.656C20.6101 33.5706 20.5101 33.5027 20.3998 33.456C20.2814 33.4032 20.1198 33.3408 19.9118 33.2688C19.6579 33.1852 19.4098 33.0848 19.1694 32.968C18.9718 32.8658 18.8021 32.717 18.675 32.5344C18.5288 32.3129 18.4565 32.0507 18.4686 31.7856C18.462 31.5227 18.5375 31.2644 18.6846 31.0464C18.8358 30.8334 19.0436 30.6672 19.2846 30.5664C19.5634 30.4536 19.8623 30.3991 20.163 30.4064C20.6175 30.3823 21.0664 30.5163 21.4334 30.7856C21.59 30.9126 21.7183 31.0711 21.8098 31.2508C21.9013 31.4305 21.954 31.6274 21.9646 31.8288H20.7118C20.6964 31.6881 20.6357 31.5561 20.539 31.4528C20.4889 31.4054 20.4298 31.3686 20.3652 31.3447C20.3006 31.3208 20.2318 31.3102 20.163 31.3136C20.0434 31.3075 19.9258 31.3463 19.8334 31.4224C19.7901 31.4631 19.7565 31.513 19.7349 31.5683C19.7133 31.6237 19.7043 31.6831 19.7086 31.7424C19.7072 31.7954 19.7164 31.8482 19.7356 31.8976C19.7549 31.9471 19.7837 31.9922 19.8206 32.0304C19.8999 32.1139 19.9958 32.1798 20.1022 32.224C20.2142 32.2736 20.3774 32.3376 20.5822 32.4144C20.8408 32.4976 21.0927 32.6003 21.3358 32.7216C21.5351 32.8288 21.7066 32.9811 21.8366 33.1664C21.9849 33.3906 22.0583 33.6562 22.0462 33.9248C22.0474 34.1651 21.9832 34.4013 21.8606 34.608Z" fill="white"/>
<path d="M23.5906 30.4688L24.7634 34.0736L25.9362 30.4688H27.1762L25.509 35.2592H24.0114L22.3506 30.4688H23.5906Z" fill="white"/>
<path d="M19.0224 24.128H7.28642C6.27042 24.128 5.44482 23.1168 5.44482 21.872V13.3616C5.44482 12.1184 6.27042 11.1072 7.28642 11.1072H19.0224C20.0384 11.1072 20.864 12.1184 20.864 13.3616V21.872C20.864 23.1168 20.0384 24.128 19.0224 24.128ZM7.28642 12.2592C6.79042 12.2592 6.38563 12.7536 6.38563 13.3616V21.872C6.38563 22.48 6.79042 22.9744 7.28642 22.9744H19.0224C19.5184 22.9744 19.9216 22.48 19.9216 21.872V13.3616C19.9216 12.7536 19.5184 12.2592 19.0224 12.2592H7.28642Z" fill="#00C650"/>
<path d="M20.3934 19.0032H5.91504V20.1568H20.3934V19.0032Z" fill="#00C650"/>
<path d="M20.3934 15.048H5.91504V16.2016H20.3934V15.048Z" fill="#00C650"/>
<path d="M16.6863 11.6832H15.5327V23.5504H16.6863V11.6832Z" fill="#00C650"/>
<path d="M10.7762 11.6832H9.62256V23.5504H10.7762V11.6832Z" fill="#00C650"/>
</svg>
