<svg width="20" height="20" viewBox="0 0 20 20" fill="none" xmlns="http://www.w3.org/2000/svg">
<path fill-rule="evenodd" clip-rule="evenodd" d="M10.2055 18.3333C9.07629 18.3333 7.97546 18.3208 6.88629 18.2983C5.49296 18.2708 4.52879 17.3675 4.37129 15.9408C4.10879 13.5742 3.65962 7.99583 3.65546 7.94C3.62712 7.59583 3.88379 7.29416 4.22796 7.26666C4.56712 7.2575 4.87379 7.49583 4.90129 7.83916C4.90546 7.89583 5.35379 13.455 5.61379 15.8033C5.70296 16.6142 6.14046 17.0325 6.91212 17.0483C8.99546 17.0925 11.1213 17.095 13.413 17.0533C14.233 17.0375 14.6763 16.6275 14.768 15.7975C15.0263 13.4692 15.4763 7.89583 15.4813 7.83916C15.5088 7.49583 15.813 7.25583 16.1538 7.26666C16.498 7.295 16.7546 7.59583 16.7271 7.94C16.7221 7.99666 16.2705 13.5892 16.0105 15.935C15.8488 17.3908 14.8871 18.2767 13.4355 18.3033C12.3246 18.3225 11.253 18.3333 10.2055 18.3333Z" fill="#FF3E4C"/>
<path fill-rule="evenodd" clip-rule="evenodd" d="M17.2567 5.82442H3.125C2.78 5.82442 2.5 5.54442 2.5 5.19942C2.5 4.85442 2.78 4.57442 3.125 4.57442H17.2567C17.6017 4.57442 17.8817 4.85442 17.8817 5.19942C17.8817 5.54442 17.6017 5.82442 17.2567 5.82442Z" fill="#FF3E4C"/>
<path fill-rule="evenodd" clip-rule="evenodd" d="M14.5335 5.82442C13.5852 5.82442 12.7618 5.14858 12.5752 4.21858L12.3727 3.20525C12.3302 3.05108 12.1543 2.91692 11.9543 2.91692H8.42682C8.22682 2.91692 8.05099 3.05108 8.00016 3.24358L7.80599 4.21858C7.62016 5.14858 6.79599 5.82442 5.84766 5.82442C5.50266 5.82442 5.22266 5.54442 5.22266 5.19942C5.22266 4.85442 5.50266 4.57442 5.84766 4.57442C6.20266 4.57442 6.51099 4.32108 6.58099 3.97275L6.78349 2.95942C6.98932 2.18275 7.66182 1.66692 8.42682 1.66692H11.9543C12.7193 1.66692 13.3918 2.18275 13.5893 2.92192L13.801 3.97275C13.8702 4.32108 14.1785 4.57442 14.5335 4.57442C14.8785 4.57442 15.1585 4.85442 15.1585 5.19942C15.1585 5.54442 14.8785 5.82442 14.5335 5.82442Z" fill="#FF3E4C"/>
</svg>
