<svg width="24" height="24" viewBox="0 0 24 24" fill="none" xmlns="http://www.w3.org/2000/svg">
<g clip-path="url(#clip0_0_4)">
<path d="M23.0279 12.2245C23.0279 11.2413 22.9495 10.5237 22.7799 9.77963H11.7495V14.2176H18.2241C18.0936 15.3205 17.3887 16.9815 15.8222 18.0976L15.8003 18.2461L19.2879 20.9963L19.5295 21.0209C21.7486 18.9347 23.0279 15.8653 23.0279 12.2245Z" fill="#4285F4"/>
<path d="M11.7495 23.9176C14.9214 23.9176 17.5844 22.8545 19.5294 21.0209L15.8222 18.0976C14.8301 18.8018 13.4986 19.2934 11.7495 19.2934C8.6427 19.2934 6.00588 17.2074 5.06592 14.324L4.92815 14.3359L1.3017 17.1927L1.25427 17.3269C3.1862 21.2334 7.15452 23.9176 11.7495 23.9176Z" fill="#34A853"/>
<path d="M5.06611 14.324C4.81809 13.5799 4.67456 12.7825 4.67456 11.9588C4.67456 11.1349 4.8181 10.3377 5.05306 9.59357L5.04649 9.4351L1.3746 6.53238L1.25446 6.59055C0.458226 8.21165 0.00134277 10.0321 0.00134277 11.9588C0.00134277 13.8854 0.458226 15.7058 1.25446 17.3269L5.06611 14.324Z" fill="#FBBC05"/>
<path d="M11.7494 4.62405C13.9555 4.62405 15.4436 5.59403 16.2921 6.40462L19.6077 3.1093C17.5714 1.18261 14.9214 1.52588e-05 11.7494 1.52588e-05C7.15451 1.52588e-05 3.18619 2.68408 1.25427 6.59058L5.05287 9.5936C6.00587 6.71021 8.64269 4.62405 11.7494 4.62405Z" fill="#EB4335"/>
</g>
<defs>
<clipPath id="clip0_0_4">
<rect width="23.04" height="24" fill="white"/>
</clipPath>
</defs>
</svg>
