<svg width="159" height="158" viewBox="0 0 159 158" fill="none" xmlns="http://www.w3.org/2000/svg">
<path fill-rule="evenodd" clip-rule="evenodd" d="M73.1169 157.84C113.498 157.84 146.234 125.104 146.234 84.7227C146.234 44.3414 113.498 11.6058 73.1169 11.6058C32.7355 11.6058 0 44.3414 0 84.7227C0 125.104 32.7355 157.84 73.1169 157.84ZM73.1169 142.752C105.166 142.752 131.146 116.771 131.146 84.7227C131.146 52.674 105.166 26.6934 73.1169 26.6934C41.0682 26.6934 15.0876 52.674 15.0876 84.7227C15.0876 116.771 41.0682 142.752 73.1169 142.752Z" fill="white"/>
<path fill-rule="evenodd" clip-rule="evenodd" d="M73.1168 12.9664C73.1168 20.6581 79.4429 26.7214 86.9155 28.544C112.303 34.7362 131.146 57.6289 131.146 84.9227C131.146 101.221 124.427 115.949 113.608 126.49C107.939 132.013 105.641 140.831 109.951 147.47C113.998 153.704 122.344 155.697 128.054 150.939C146.964 135.185 159 111.46 159 84.9227C159 42.2132 127.824 6.78519 86.9882 0.153801C79.396 -1.07911 73.1168 5.27473 73.1168 12.9664Z" fill="#002397"/>
</svg>
