<svg width="110" height="86" viewBox="0 0 110 86" fill="none" xmlns="http://www.w3.org/2000/svg">
<path d="M10.6154 37.8181C2.96782 38.3656 1.29589 32.0718 1.39777 28.1627C1.41075 27.6643 1.82042 27.2809 2.31666 27.2589L36.9729 25.7223C37.5109 25.6984 37.9692 26.1071 38.0089 26.6459L38.6286 35.0702C38.6698 35.6304 38.2484 36.1165 37.6894 36.1479C31.3076 36.5063 18.419 37.2594 10.6154 37.8181Z" fill="url(#paint0_linear_13_2163)"/>
<path d="M10.6154 37.8181C2.96782 38.3656 1.29589 32.0718 1.39777 28.1627C1.41075 27.6643 1.82042 27.2809 2.31666 27.2589L36.9729 25.7223C37.5109 25.6984 37.9692 26.1071 38.0089 26.6459L38.6286 35.0702C38.6698 35.6304 38.2484 36.1165 37.6894 36.1479C31.3076 36.5063 18.419 37.2594 10.6154 37.8181Z" fill="url(#paint1_linear_13_2163)"/>
<path d="M10.6154 37.8181C2.96782 38.3656 1.29589 32.0718 1.39777 28.1627C1.41075 27.6643 1.82042 27.2809 2.31666 27.2589L36.9729 25.7223C37.5109 25.6984 37.9692 26.1071 38.0089 26.6459L38.6286 35.0702C38.6698 35.6304 38.2484 36.1165 37.6894 36.1479C31.3076 36.5063 18.419 37.2594 10.6154 37.8181Z" stroke="url(#paint2_linear_13_2163)" stroke-width="0.5"/>
<path d="M16.8157 45.8506C10.6194 46.2053 8.34421 40.3366 7.84695 36.5724C7.77302 36.0127 8.2149 35.5343 8.77686 35.5185L37.8035 34.7046C38.314 34.6903 38.7516 35.0656 38.8173 35.5743L39.8679 43.7062C39.9436 44.2918 39.5036 44.8174 38.916 44.8406C33.5602 45.0512 23.1468 45.4882 16.8157 45.8506Z" fill="url(#paint3_linear_13_2163)"/>
<path d="M16.8157 45.8506C10.6194 46.2053 8.34421 40.3366 7.84695 36.5724C7.77302 36.0127 8.2149 35.5343 8.77686 35.5185L37.8035 34.7046C38.314 34.6903 38.7516 35.0656 38.8173 35.5743L39.8679 43.7062C39.9436 44.2918 39.5036 44.8174 38.916 44.8406C33.5602 45.0512 23.1468 45.4882 16.8157 45.8506Z" fill="url(#paint4_linear_13_2163)"/>
<path d="M16.8157 45.8506C10.6194 46.2053 8.34421 40.3366 7.84695 36.5724C7.77302 36.0127 8.2149 35.5343 8.77686 35.5185L37.8035 34.7046C38.314 34.6903 38.7516 35.0656 38.8173 35.5743L39.8679 43.7062C39.9436 44.2918 39.5036 44.8174 38.916 44.8406C33.5602 45.0512 23.1468 45.4882 16.8157 45.8506Z" stroke="url(#paint5_linear_13_2163)" stroke-width="0.5"/>
<path d="M99.3851 37.8181C107.033 38.3656 108.705 32.0718 108.603 28.1627C108.59 27.6643 108.18 27.2809 107.684 27.2589L73.0276 25.7223C72.4896 25.6984 72.0313 26.1071 71.9916 26.6459L71.3719 35.0702C71.3307 35.6304 71.7521 36.1165 72.3111 36.1479C78.6929 36.5063 91.5815 37.2594 99.3851 37.8181Z" fill="url(#paint6_linear_13_2163)"/>
<path d="M99.3851 37.8181C107.033 38.3656 108.705 32.0718 108.603 28.1627C108.59 27.6643 108.18 27.2809 107.684 27.2589L73.0276 25.7223C72.4896 25.6984 72.0313 26.1071 71.9916 26.6459L71.3719 35.0702C71.3307 35.6304 71.7521 36.1165 72.3111 36.1479C78.6929 36.5063 91.5815 37.2594 99.3851 37.8181Z" fill="url(#paint7_linear_13_2163)"/>
<path d="M99.3851 37.8181C107.033 38.3656 108.705 32.0718 108.603 28.1627C108.59 27.6643 108.18 27.2809 107.684 27.2589L73.0276 25.7223C72.4896 25.6984 72.0313 26.1071 71.9916 26.6459L71.3719 35.0702C71.3307 35.6304 71.7521 36.1165 72.3111 36.1479C78.6929 36.5063 91.5815 37.2594 99.3851 37.8181Z" stroke="url(#paint8_linear_13_2163)" stroke-width="0.5"/>
<path d="M93.1838 45.8506C99.3801 46.2053 101.655 40.3366 102.153 36.5724C102.226 36.0127 101.785 35.5343 101.223 35.5185L72.1961 34.7046C71.6855 34.6903 71.248 35.0656 71.1822 35.5743L70.1316 43.7062C70.056 44.2919 70.4959 44.8174 71.0835 44.8406C76.4393 45.0512 86.8528 45.4882 93.1838 45.8506Z" fill="url(#paint9_linear_13_2163)"/>
<path d="M93.1838 45.8506C99.3801 46.2053 101.655 40.3366 102.153 36.5724C102.226 36.0127 101.785 35.5343 101.223 35.5185L72.1961 34.7046C71.6855 34.6903 71.248 35.0656 71.1822 35.5743L70.1316 43.7062C70.056 44.2919 70.4959 44.8174 71.0835 44.8406C76.4393 45.0512 86.8528 45.4882 93.1838 45.8506Z" fill="url(#paint10_linear_13_2163)"/>
<path d="M93.1838 45.8506C99.3801 46.2053 101.655 40.3366 102.153 36.5724C102.226 36.0127 101.785 35.5343 101.223 35.5185L72.1961 34.7046C71.6855 34.6903 71.248 35.0656 71.1822 35.5743L70.1316 43.7062C70.056 44.2919 70.4959 44.8174 71.0835 44.8406C76.4393 45.0512 86.8528 45.4882 93.1838 45.8506Z" stroke="url(#paint11_linear_13_2163)" stroke-width="0.5"/>
<path d="M50.5458 2.30062C53.0177 0.87658 56.0608 0.876577 58.5327 2.30062L87.5394 19.0112C90.0183 20.4393 91.5459 23.0824 91.5459 25.9432V59.3343C91.5459 62.1951 90.0183 64.8382 87.5394 66.2663L58.5327 82.9769C56.0608 84.4009 53.0177 84.4009 50.5458 82.9769L21.5391 66.2663C19.0602 64.8382 17.5326 62.1951 17.5326 59.3343V25.9432C17.5326 23.0824 19.0602 20.4393 21.5391 19.0112L50.5458 2.30062Z" fill="url(#paint12_linear_13_2163)"/>
<path d="M50.5458 2.30062C53.0177 0.87658 56.0608 0.876577 58.5327 2.30062L87.5394 19.0112C90.0183 20.4393 91.5459 23.0824 91.5459 25.9432V59.3343C91.5459 62.1951 90.0183 64.8382 87.5394 66.2663L58.5327 82.9769C56.0608 84.4009 53.0177 84.4009 50.5458 82.9769L21.5391 66.2663C19.0602 64.8382 17.5326 62.1951 17.5326 59.3343V25.9432C17.5326 23.0824 19.0602 20.4393 21.5391 19.0112L50.5458 2.30062Z" fill="url(#paint13_radial_13_2163)"/>
<g filter="url(#filter0_i_13_2163)">
<path d="M50.5455 8.47201C53.0174 7.04796 56.0606 7.04796 58.5324 8.47201L82.1829 22.0969C84.6618 23.525 86.1894 26.1681 86.1894 29.0289V56.2486C86.1894 59.1094 84.6618 61.7525 82.1829 63.1805L58.5324 76.8054C56.0606 78.2295 53.0174 78.2295 50.5455 76.8054L26.8951 63.1805C24.4162 61.7525 22.8885 59.1094 22.8885 56.2486V29.0289C22.8885 26.1681 24.4162 23.525 26.8951 22.0969L50.5455 8.47201Z" fill="url(#paint14_linear_13_2163)"/>
<path d="M50.5455 8.47201C53.0174 7.04796 56.0606 7.04796 58.5324 8.47201L82.1829 22.0969C84.6618 23.525 86.1894 26.1681 86.1894 29.0289V56.2486C86.1894 59.1094 84.6618 61.7525 82.1829 63.1805L58.5324 76.8054C56.0606 78.2295 53.0174 78.2295 50.5455 76.8054L26.8951 63.1805C24.4162 61.7525 22.8885 59.1094 22.8885 56.2486V29.0289C22.8885 26.1681 24.4162 23.525 26.8951 22.0969L50.5455 8.47201Z" fill="url(#paint15_linear_13_2163)"/>
<path d="M50.5455 8.47201C53.0174 7.04796 56.0606 7.04796 58.5324 8.47201L82.1829 22.0969C84.6618 23.525 86.1894 26.1681 86.1894 29.0289V56.2486C86.1894 59.1094 84.6618 61.7525 82.1829 63.1805L58.5324 76.8054C56.0606 78.2295 53.0174 78.2295 50.5455 76.8054L26.8951 63.1805C24.4162 61.7525 22.8885 59.1094 22.8885 56.2486V29.0289C22.8885 26.1681 24.4162 23.525 26.8951 22.0969L50.5455 8.47201Z" fill="url(#paint16_linear_13_2163)"/>
</g>
<path d="M50.5457 11.2772C53.0176 9.85314 56.0608 9.85314 58.5327 11.2772L79.7485 23.4995C82.2274 24.9276 83.755 27.5707 83.755 30.4315V54.846C83.755 57.7068 82.2274 60.3499 79.7485 61.7779L58.5327 74.0003C56.0608 75.4243 53.0176 75.4243 50.5457 74.0003L29.3299 61.778C26.8511 60.3499 25.3234 57.7068 25.3234 54.846V30.4315C25.3234 27.5707 26.8511 24.9276 29.3299 23.4995L50.5457 11.2772Z" fill="url(#paint17_linear_13_2163)"/>
<g filter="url(#filter1_i_13_2163)">
<path d="M50.5455 11.8383C53.0174 10.4142 56.0606 10.4142 58.5324 11.8383L79.2613 23.7801C81.7402 25.2082 83.2678 27.8512 83.2678 30.712V54.5655C83.2678 57.4263 81.7402 60.0694 79.2613 61.4975L58.5324 73.4393C56.0605 74.8633 53.0174 74.8633 50.5455 73.4393L29.8166 61.4975C27.3377 60.0694 25.8101 57.4263 25.8101 54.5655V30.712C25.8101 27.8512 27.3377 25.2082 29.8166 23.7801L50.5455 11.8383Z" fill="url(#paint18_radial_13_2163)"/>
<path d="M50.5455 11.8383C53.0174 10.4142 56.0606 10.4142 58.5324 11.8383L79.2613 23.7801C81.7402 25.2082 83.2678 27.8512 83.2678 30.712V54.5655C83.2678 57.4263 81.7402 60.0694 79.2613 61.4975L58.5324 73.4393C56.0605 74.8633 53.0174 74.8633 50.5455 73.4393L29.8166 61.4975C27.3377 60.0694 25.8101 57.4263 25.8101 54.5655V30.712C25.8101 27.8512 27.3377 25.2082 29.8166 23.7801L50.5455 11.8383Z" fill="url(#paint19_angular_13_2163)" fill-opacity="0.3"/>
</g>
<path d="M54.5452 23.0024L61.2064 33.6928L73.4541 36.7108L65.3233 46.3357L66.2316 58.8913L54.5452 54.1494L42.8588 58.8913L43.767 46.3357L35.6362 36.7108L47.8839 33.6928L54.5452 23.0024Z" fill="#ECFEFF"/>
<path d="M54.5447 23.8123L60.934 34.0663L72.6819 36.961L64.8829 46.1931L65.7541 58.2362L54.5447 53.688L43.3353 58.2362L44.2065 46.1931L36.4075 36.961L48.1553 34.0663L54.5447 23.8123Z" fill="#EAFFFA"/>
<path d="M54.5449 42.0315V23.5557L61.037 33.9341L54.5449 42.0315Z" fill="url(#paint20_linear_13_2163)" fill-opacity="0.1"/>
<path d="M54.5449 42.0314L72.6417 37.092L61.037 33.934L54.5449 42.0314Z" fill="url(#paint21_linear_13_2163)" fill-opacity="0.5"/>
<path d="M54.5447 42.0316L72.6305 37.0921L65.0944 46.0803L54.5447 42.0316Z" fill="url(#paint22_linear_13_2163)"/>
<path d="M54.5446 42.0316L65.5001 57.8217L65.0943 46.0803L54.5446 42.0316Z" fill="url(#paint23_linear_13_2163)"/>
<path d="M54.1389 42.4364L36.2856 36.9301L48.0526 34.2579L54.1389 42.4364Z" fill="url(#paint24_linear_13_2163)"/>
<path d="M54.5449 42.0316L36.2859 36.9302L44.2387 46.2423L54.5449 42.0316Z" fill="url(#paint25_linear_13_2163)"/>
<path d="M54.5452 42.0315L65.5007 57.8216L54.5452 53.449L54.5452 42.0315Z" fill="url(#paint26_linear_13_2163)"/>
<path d="M54.5446 42.0315L43.5892 57.8216L54.5446 53.449L54.5446 42.0315Z" fill="url(#paint27_linear_13_2163)"/>
<path d="M54.5448 42.0315L43.5894 57.8217L44.1409 46.3925L54.5448 42.0315Z" fill="url(#paint28_linear_13_2163)"/>
<path d="M54.5447 23.8123L60.934 34.0663L72.6819 36.961L64.8829 46.1931L65.7541 58.2362L54.5447 53.688L43.3353 58.2362L44.2065 46.1931L36.4075 36.961L48.1553 34.0663L54.5447 23.8123Z" fill="url(#paint29_radial_13_2163)" fill-opacity="0.4"/>
<mask id="mask0_13_2163" style="mask-type:alpha" maskUnits="userSpaceOnUse" x="35" y="23" width="39" height="36">
<path d="M54.5452 23.0024L61.2064 33.6928L73.4541 36.7108L65.3233 46.3357L66.2316 58.8913L54.5452 54.1494L42.8588 58.8913L43.767 46.3357L35.6362 36.7108L47.8839 33.6928L54.5452 23.0024Z" fill="#ECFEFF"/>
<path d="M54.5447 23.8123L60.934 34.0663L72.6819 36.961L64.8829 46.1931L65.7541 58.2362L54.5447 53.688L43.3353 58.2362L44.2065 46.1931L36.4075 36.961L48.1553 34.0663L54.5447 23.8123Z" fill="#EAFFFA"/>
<path d="M54.5449 42.0315V23.5557L61.037 33.9341L54.5449 42.0315Z" fill="url(#paint30_linear_13_2163)" fill-opacity="0.1"/>
<path d="M54.5449 42.0314L72.6417 37.092L61.037 33.934L54.5449 42.0314Z" fill="url(#paint31_linear_13_2163)" fill-opacity="0.5"/>
<path d="M54.5447 42.0316L72.6305 37.0921L65.0944 46.0803L54.5447 42.0316Z" fill="url(#paint32_linear_13_2163)"/>
<path d="M54.5446 42.0316L65.5001 57.8217L65.0943 46.0803L54.5446 42.0316Z" fill="url(#paint33_linear_13_2163)"/>
<path d="M54.1389 42.4364L36.2856 36.9301L48.0526 34.2579L54.1389 42.4364Z" fill="url(#paint34_linear_13_2163)"/>
<path d="M54.5449 42.0316L36.2859 36.9302L44.2387 46.2423L54.5449 42.0316Z" fill="url(#paint35_linear_13_2163)"/>
<path d="M54.5452 42.0315L65.5007 57.8216L54.5452 53.449L54.5452 42.0315Z" fill="url(#paint36_linear_13_2163)"/>
<path d="M54.5446 42.0315L43.5892 57.8216L54.5446 53.449L54.5446 42.0315Z" fill="url(#paint37_linear_13_2163)"/>
<path d="M54.5448 42.0315L43.5894 57.8217L44.1409 46.3925L54.5448 42.0315Z" fill="url(#paint38_linear_13_2163)"/>
<path d="M54.5447 23.8123L60.934 34.0663L72.6819 36.961L64.8829 46.1931L65.7541 58.2362L54.5447 53.688L43.3353 58.2362L44.2065 46.1931L36.4075 36.961L48.1553 34.0663L54.5447 23.8123Z" fill="url(#paint39_radial_13_2163)" fill-opacity="0.4"/>
</mask>
<g mask="url(#mask0_13_2163)">
<g style="mix-blend-mode:color">
<rect x="24.1772" y="13.4648" width="55.6636" height="55.5426" fill="#FED746"/>
</g>
</g>
<defs>
<filter id="filter0_i_13_2163" x="22.8887" y="7.40399" width="63.3008" height="73.4695" filterUnits="userSpaceOnUse" color-interpolation-filters="sRGB">
<feFlood flood-opacity="0" result="BackgroundImageFix"/>
<feBlend mode="normal" in="SourceGraphic" in2="BackgroundImageFix" result="shape"/>
<feColorMatrix in="SourceAlpha" type="matrix" values="0 0 0 0 0 0 0 0 0 0 0 0 0 0 0 0 0 0 127 0" result="hardAlpha"/>
<feOffset dy="4"/>
<feGaussianBlur stdDeviation="1.5"/>
<feComposite in2="hardAlpha" operator="arithmetic" k2="-1" k3="1"/>
<feColorMatrix type="matrix" values="0 0 0 0 0.645833 0 0 0 0 0.312946 0 0 0 0 0.0861111 0 0 0 0.25 0"/>
<feBlend mode="normal" in2="shape" result="effect1_innerShadow_13_2163"/>
</filter>
<filter id="filter1_i_13_2163" x="21.8101" y="2.77026" width="61.458" height="71.7371" filterUnits="userSpaceOnUse" color-interpolation-filters="sRGB">
<feFlood flood-opacity="0" result="BackgroundImageFix"/>
<feBlend mode="normal" in="SourceGraphic" in2="BackgroundImageFix" result="shape"/>
<feColorMatrix in="SourceAlpha" type="matrix" values="0 0 0 0 0 0 0 0 0 0 0 0 0 0 0 0 0 0 127 0" result="hardAlpha"/>
<feOffset dx="-4" dy="-8"/>
<feGaussianBlur stdDeviation="12"/>
<feComposite in2="hardAlpha" operator="arithmetic" k2="-1" k3="1"/>
<feColorMatrix type="matrix" values="0 0 0 0 0.8125 0 0 0 0 0.475168 0 0 0 0 0 0 0 0 0.15 0"/>
<feBlend mode="normal" in2="shape" result="effect1_innerShadow_13_2163"/>
</filter>
<linearGradient id="paint0_linear_13_2163" x1="2.25539" y1="31.3366" x2="21.8966" y2="33.4007" gradientUnits="userSpaceOnUse">
<stop stop-color="#FDFBCC"/>
<stop offset="0.4375" stop-color="#DFC360"/>
<stop offset="1" stop-color="#D19337"/>
</linearGradient>
<linearGradient id="paint1_linear_13_2163" x1="13.2345" y1="24.9909" x2="20.5175" y2="43.8265" gradientUnits="userSpaceOnUse">
<stop offset="0.165044" stop-color="#FFE255" stop-opacity="0.6"/>
<stop offset="1" stop-color="#FFEB86" stop-opacity="0"/>
</linearGradient>
<linearGradient id="paint2_linear_13_2163" x1="-0.379348" y1="27.0764" x2="11.5674" y2="41.1168" gradientUnits="userSpaceOnUse">
<stop stop-color="#FBF9C5"/>
<stop offset="0.458333" stop-color="#F5D24E"/>
<stop offset="1" stop-color="#FFC672"/>
</linearGradient>
<linearGradient id="paint3_linear_13_2163" x1="8.96692" y1="39.4446" x2="25.4675" y2="38.6259" gradientUnits="userSpaceOnUse">
<stop stop-color="#FDF8CC"/>
<stop offset="0.4375" stop-color="#DFBB60"/>
<stop offset="1" stop-color="#D18137"/>
</linearGradient>
<linearGradient id="paint4_linear_13_2163" x1="17.4985" y1="33.4645" x2="25.7684" y2="51.8726" gradientUnits="userSpaceOnUse">
<stop offset="0.165044" stop-color="#FFE255" stop-opacity="0.6"/>
<stop offset="1" stop-color="#FFEB86" stop-opacity="0"/>
</linearGradient>
<linearGradient id="paint5_linear_13_2163" x1="6.1935" y1="35.2956" x2="19.5606" y2="47.3741" gradientUnits="userSpaceOnUse">
<stop stop-color="#FFFCE1"/>
<stop offset="0.458333" stop-color="#EBC855"/>
<stop offset="1" stop-color="#EAB415"/>
</linearGradient>
<linearGradient id="paint6_linear_13_2163" x1="107.745" y1="31.3366" x2="88.1039" y2="33.4007" gradientUnits="userSpaceOnUse">
<stop stop-color="#FDFBCC"/>
<stop offset="0.4375" stop-color="#DFC360"/>
<stop offset="1" stop-color="#D19337"/>
</linearGradient>
<linearGradient id="paint7_linear_13_2163" x1="96.766" y1="24.9909" x2="89.483" y2="43.8265" gradientUnits="userSpaceOnUse">
<stop offset="0.165044" stop-color="#FFE255" stop-opacity="0.6"/>
<stop offset="1" stop-color="#FFEB86" stop-opacity="0"/>
</linearGradient>
<linearGradient id="paint8_linear_13_2163" x1="110.38" y1="27.0764" x2="98.4331" y2="41.1168" gradientUnits="userSpaceOnUse">
<stop stop-color="#FBF9C5"/>
<stop offset="0.458333" stop-color="#F5D24E"/>
<stop offset="1" stop-color="#FFC672"/>
</linearGradient>
<linearGradient id="paint9_linear_13_2163" x1="101.033" y1="39.4446" x2="84.532" y2="38.6259" gradientUnits="userSpaceOnUse">
<stop stop-color="#FDF8CC"/>
<stop offset="0.4375" stop-color="#DFBB60"/>
<stop offset="1" stop-color="#D18137"/>
</linearGradient>
<linearGradient id="paint10_linear_13_2163" x1="92.501" y1="33.4645" x2="84.2311" y2="51.8726" gradientUnits="userSpaceOnUse">
<stop offset="0.165044" stop-color="#FFE255" stop-opacity="0.6"/>
<stop offset="1" stop-color="#FFEB86" stop-opacity="0"/>
</linearGradient>
<linearGradient id="paint11_linear_13_2163" x1="103.806" y1="35.2956" x2="90.4389" y2="47.3741" gradientUnits="userSpaceOnUse">
<stop stop-color="#FFFCE1"/>
<stop offset="0.458333" stop-color="#EBC855"/>
<stop offset="1" stop-color="#EAB415"/>
</linearGradient>
<linearGradient id="paint12_linear_13_2163" x1="54.5393" y1="0" x2="54.5393" y2="85.2775" gradientUnits="userSpaceOnUse">
<stop stop-color="#FCDC3E"/>
<stop offset="1" stop-color="#F7B609"/>
</linearGradient>
<radialGradient id="paint13_radial_13_2163" cx="0" cy="0" r="1" gradientUnits="userSpaceOnUse" gradientTransform="translate(41.8884 30.857) rotate(76.9132) scale(55.8716 49.731)">
<stop stop-color="white"/>
<stop offset="1" stop-color="white" stop-opacity="0"/>
</radialGradient>
<linearGradient id="paint14_linear_13_2163" x1="62.9729" y1="72.9347" x2="36.9206" y2="17.9092" gradientUnits="userSpaceOnUse">
<stop stop-color="#FFEEB0"/>
<stop offset="1" stop-color="#E98C00"/>
</linearGradient>
<linearGradient id="paint15_linear_13_2163" x1="51.1321" y1="76.0156" x2="47.1231" y2="16.6778" gradientUnits="userSpaceOnUse">
<stop stop-color="#FCDC3E"/>
<stop offset="1" stop-color="#FC9700"/>
</linearGradient>
<linearGradient id="paint16_linear_13_2163" x1="65.503" y1="100.145" x2="52.0613" y2="60.8544" gradientUnits="userSpaceOnUse">
<stop offset="0.0637989" stop-color="white"/>
<stop offset="0.243063" stop-color="white"/>
<stop offset="1" stop-color="white" stop-opacity="0"/>
</linearGradient>
<linearGradient id="paint17_linear_13_2163" x1="54.5392" y1="8.97656" x2="54.5392" y2="76.3009" gradientUnits="userSpaceOnUse">
<stop stop-color="#FFE255"/>
<stop offset="1" stop-color="#FAAA33"/>
</linearGradient>
<radialGradient id="paint18_radial_13_2163" cx="0" cy="0" r="1" gradientUnits="userSpaceOnUse" gradientTransform="translate(40.9989 17.3063) rotate(76.9538) scale(59.9818 60.0992)">
<stop stop-color="#FFE255"/>
<stop offset="1" stop-color="#F0B007"/>
</radialGradient>
<radialGradient id="paint19_angular_13_2163" cx="0" cy="0" r="1" gradientUnits="userSpaceOnUse" gradientTransform="translate(50.2782 41.1204) rotate(-148.65) scale(33.855 2.72436)">
<stop stop-color="#FFF9C1"/>
<stop offset="1" stop-color="#FFF7B3" stop-opacity="0"/>
</radialGradient>
<linearGradient id="paint20_linear_13_2163" x1="59.0082" y1="37.173" x2="57.3922" y2="21.3822" gradientUnits="userSpaceOnUse">
<stop stop-color="#30F8FF"/>
<stop offset="1" stop-color="#30C0FF"/>
</linearGradient>
<linearGradient id="paint21_linear_13_2163" x1="59.414" y1="39.6022" x2="67.5209" y2="35.1337" gradientUnits="userSpaceOnUse">
<stop stop-color="#30C0FF"/>
<stop offset="1" stop-color="#88FBFF"/>
</linearGradient>
<linearGradient id="paint22_linear_13_2163" x1="64.6886" y1="43.2462" x2="54.1454" y2="42.9858" gradientUnits="userSpaceOnUse">
<stop stop-color="#B4FAFF"/>
<stop offset="1" stop-color="#ABC3FF" stop-opacity="0"/>
</linearGradient>
<linearGradient id="paint23_linear_13_2163" x1="56.5734" y1="44.056" x2="71.0143" y2="65.4948" gradientUnits="userSpaceOnUse">
<stop stop-color="#8FE0FC"/>
<stop offset="1" stop-color="#DBF4FC" stop-opacity="0"/>
</linearGradient>
<linearGradient id="paint24_linear_13_2163" x1="41.9662" y1="35.5535" x2="72.223" y2="53.046" gradientUnits="userSpaceOnUse">
<stop stop-color="#C4F7FB"/>
<stop offset="1" stop-color="white" stop-opacity="0"/>
</linearGradient>
<linearGradient id="paint25_linear_13_2163" x1="44.401" y1="38.3877" x2="43.5947" y2="51.2833" gradientUnits="userSpaceOnUse">
<stop stop-color="#B1F1F5"/>
<stop offset="0.632958" stop-color="#F0FCFF"/>
</linearGradient>
<linearGradient id="paint26_linear_13_2163" x1="59.8201" y1="55.3924" x2="55.1596" y2="40.8939" gradientUnits="userSpaceOnUse">
<stop stop-color="#88FBFF"/>
<stop offset="1" stop-color="#CCE5FC"/>
</linearGradient>
<linearGradient id="paint27_linear_13_2163" x1="47.241" y1="56.607" x2="52.013" y2="43.7195" gradientUnits="userSpaceOnUse">
<stop stop-color="#88FBFF"/>
<stop offset="1" stop-color="#7FD8F4" stop-opacity="0.97"/>
</linearGradient>
<linearGradient id="paint28_linear_13_2163" x1="52.1102" y1="44.8657" x2="25.3564" y2="44.0094" gradientUnits="userSpaceOnUse">
<stop stop-color="#9FEAFC"/>
<stop offset="0.756157" stop-color="#D5F0FF" stop-opacity="0"/>
</linearGradient>
<radialGradient id="paint29_radial_13_2163" cx="0" cy="0" r="1" gradientUnits="userSpaceOnUse" gradientTransform="translate(45.2123 57.8217) rotate(-64.2413) scale(24.2754 47.1726)">
<stop stop-color="#30C0FF"/>
<stop offset="1" stop-color="#EAF7FF" stop-opacity="0"/>
</radialGradient>
<linearGradient id="paint30_linear_13_2163" x1="59.0082" y1="37.173" x2="57.3922" y2="21.3822" gradientUnits="userSpaceOnUse">
<stop stop-color="#30F8FF"/>
<stop offset="1" stop-color="#30C0FF"/>
</linearGradient>
<linearGradient id="paint31_linear_13_2163" x1="59.414" y1="39.6022" x2="67.5209" y2="35.1337" gradientUnits="userSpaceOnUse">
<stop stop-color="#30C0FF"/>
<stop offset="1" stop-color="#88FBFF"/>
</linearGradient>
<linearGradient id="paint32_linear_13_2163" x1="64.6886" y1="43.2462" x2="54.1454" y2="42.9858" gradientUnits="userSpaceOnUse">
<stop stop-color="#B4FAFF"/>
<stop offset="1" stop-color="#ABC3FF" stop-opacity="0"/>
</linearGradient>
<linearGradient id="paint33_linear_13_2163" x1="56.5734" y1="44.056" x2="71.0143" y2="65.4948" gradientUnits="userSpaceOnUse">
<stop stop-color="#8FE0FC"/>
<stop offset="1" stop-color="#DBF4FC" stop-opacity="0"/>
</linearGradient>
<linearGradient id="paint34_linear_13_2163" x1="41.9662" y1="35.5535" x2="72.223" y2="53.046" gradientUnits="userSpaceOnUse">
<stop stop-color="#C4F7FB"/>
<stop offset="1" stop-color="white" stop-opacity="0"/>
</linearGradient>
<linearGradient id="paint35_linear_13_2163" x1="44.401" y1="38.3877" x2="43.5947" y2="51.2833" gradientUnits="userSpaceOnUse">
<stop stop-color="#B1F1F5"/>
<stop offset="0.632958" stop-color="#F0FCFF"/>
</linearGradient>
<linearGradient id="paint36_linear_13_2163" x1="59.8201" y1="55.3924" x2="55.1596" y2="40.8939" gradientUnits="userSpaceOnUse">
<stop stop-color="#88FBFF"/>
<stop offset="1" stop-color="#CCE5FC"/>
</linearGradient>
<linearGradient id="paint37_linear_13_2163" x1="47.241" y1="56.607" x2="52.013" y2="43.7195" gradientUnits="userSpaceOnUse">
<stop stop-color="#88FBFF"/>
<stop offset="1" stop-color="#7FD8F4" stop-opacity="0.97"/>
</linearGradient>
<linearGradient id="paint38_linear_13_2163" x1="52.1102" y1="44.8657" x2="25.3564" y2="44.0094" gradientUnits="userSpaceOnUse">
<stop stop-color="#9FEAFC"/>
<stop offset="0.756157" stop-color="#D5F0FF" stop-opacity="0"/>
</linearGradient>
<radialGradient id="paint39_radial_13_2163" cx="0" cy="0" r="1" gradientUnits="userSpaceOnUse" gradientTransform="translate(45.2123 57.8217) rotate(-64.2413) scale(24.2754 47.1726)">
<stop stop-color="#30C0FF"/>
<stop offset="1" stop-color="#EAF7FF" stop-opacity="0"/>
</radialGradient>
</defs>
</svg>
